<svg width="291" height="206" viewBox="0 0 291 206" fill="none" xmlns="http://www.w3.org/2000/svg">
<path opacity="0.3" d="M259.849 49.2385C259.849 49.2385 257.171 34.3003 248.244 35.3206C244.188 35.7781 241.474 38.1024 239.121 41.7259C236.102 46.3515 235.02 43.6613 230.703 45.1803C226.839 46.5528 227.432 50.2725 225.051 50.9496C222.67 51.6268 220.89 48.5751 217.615 49.2522C214.34 49.9294 212.56 53.6673 212.56 53.6673H272.043C271.888 52.3973 271.411 51.2067 270.671 50.2419C269.932 49.2771 268.961 48.58 267.878 48.2365C264.014 46.8639 262.226 50.2588 259.849 49.2385Z" stroke="black" stroke-miterlimit="10"/>
<path opacity="0.3" d="M77.6637 17.6831C77.6637 17.6831 75.8358 7.47112 69.7348 8.17113C66.9609 8.48682 65.1089 10.0744 63.5015 12.5359C61.437 15.6974 60.6955 13.8582 57.7452 14.8967C55.1035 15.8255 55.5044 18.3831 53.9009 18.8406C52.2975 19.2981 51.0549 17.2164 48.8221 17.6831C46.5893 18.1497 45.3667 20.6981 45.3667 20.6981H85.9975C85.8896 19.8359 85.5642 19.0281 85.0609 18.3733C84.5577 17.7185 83.8984 17.245 83.1635 17.0105C80.5098 16.0588 79.2912 18.3831 77.6637 17.6831Z" stroke="black" stroke-miterlimit="10"/>
<g opacity="0.3">
<path d="M200.905 4.52825L192.647 24.3236L222.673 40.6403L230.931 20.8449L200.905 4.52825Z" stroke="black" stroke-miterlimit="10"/>
<path d="M204.406 8.77499C204.142 9.40752 203.668 9.89437 203.09 10.1286C202.511 10.3628 201.874 10.3252 201.32 10.024C201.232 9.97792 201.148 9.9244 201.067 9.8639L196.325 21.2425C196.417 21.2754 196.507 21.3151 196.594 21.3615C197.148 21.6642 197.575 22.2057 197.78 22.867C197.985 23.5283 197.952 24.2555 197.688 24.889C197.668 24.9377 197.645 24.9851 197.62 25.0308L219.074 36.684C219.074 36.6336 219.11 36.5833 219.13 36.533C219.394 35.8996 219.867 35.4118 220.446 35.1767C221.025 34.9416 221.662 34.9785 222.217 35.2794C222.303 35.3288 222.388 35.3838 222.469 35.4441L227.211 24.0792C227.119 24.0447 227.03 24.0035 226.943 23.9556C226.393 23.6506 225.972 23.1099 225.771 22.4516C225.569 21.7932 225.605 21.0708 225.868 20.4419C225.909 20.3419 225.956 20.2456 226.009 20.1536L204.511 8.48218C204.481 8.5822 204.447 8.68 204.406 8.77499V8.77499ZM215.23 24.4406C214.908 25.217 214.391 25.8667 213.745 26.3075C213.099 26.7482 212.353 26.9602 211.601 26.9164C210.85 26.8726 210.126 26.5751 209.523 26.0616C208.92 25.5481 208.464 24.8417 208.213 24.032C207.961 23.2222 207.927 22.3456 208.113 21.5133C208.298 20.681 208.697 19.9304 209.257 19.3567C209.817 18.783 210.514 18.412 211.259 18.2908C212.004 18.1696 212.764 18.3036 213.442 18.6758C213.892 18.9212 214.295 19.2653 214.628 19.6885C214.961 20.1118 215.218 20.6058 215.384 21.1424C215.55 21.679 215.622 22.2477 215.596 22.8159C215.569 23.3842 215.445 23.9409 215.23 24.4543V24.4406Z" stroke="black" stroke-miterlimit="10"/>
</g>
<g opacity="0.3">
<path d="M22.1477 15.7436L13.8901 35.5389L43.9157 51.8556L52.1733 32.0602L22.1477 15.7436Z" stroke="black" stroke-miterlimit="10"/>
<path d="M25.6408 19.9981C25.5103 20.3117 25.3269 20.5928 25.101 20.8254C24.8751 21.058 24.6113 21.2374 24.3246 21.3534C24.0379 21.4695 23.7339 21.5198 23.4301 21.5015C23.1263 21.4833 22.8287 21.3968 22.5542 21.2471C22.4667 21.201 22.3823 21.1475 22.3017 21.087L17.5596 32.4519C17.6498 32.4835 17.7382 32.5217 17.8241 32.5663C18.0989 32.7152 18.3452 32.9246 18.549 33.1824C18.7528 33.4402 18.91 33.7414 19.0116 34.0686C19.1133 34.3959 19.1574 34.7428 19.1414 35.0895C19.1254 35.4362 19.0497 35.7759 18.9185 36.0892C18.8984 36.1395 18.8744 36.1853 18.8503 36.2356L40.3042 47.8933L40.3603 47.7423C40.4908 47.4287 40.6743 47.1476 40.9002 46.915C41.126 46.6824 41.3899 46.503 41.6766 46.387C41.9633 46.2709 42.2672 46.2206 42.571 46.2389C42.8748 46.2571 43.1724 46.3436 43.4469 46.4933C43.5345 46.5394 43.6189 46.5929 43.6994 46.6534L48.4456 35.3114C48.3534 35.2748 48.2652 35.2382 48.177 35.1924C47.9009 35.0426 47.6536 34.8319 47.4491 34.5725C47.2447 34.3131 47.0873 34.0101 46.9859 33.6809C46.8846 33.3517 46.8413 33.0029 46.8586 32.6546C46.8759 32.3062 46.9534 31.9652 47.0867 31.6512C47.1271 31.5527 47.174 31.4579 47.227 31.3675L25.7451 19.6915C25.718 19.7969 25.6832 19.8995 25.6408 19.9981V19.9981ZM36.464 35.6637C36.1415 36.4371 35.6253 37.084 34.9808 37.5227C34.3363 37.9615 33.5923 38.1723 32.8429 38.1287C32.0934 38.085 31.3721 37.7888 30.7701 37.2774C30.168 36.7661 29.7123 36.0626 29.4604 35.2557C29.2086 34.4489 29.1719 33.5749 29.355 32.7443C29.5381 31.9137 29.9328 31.1636 30.4892 30.5889C31.0456 30.0142 31.7388 29.6406 32.4812 29.5154C33.2236 29.3901 33.9818 29.5188 34.6601 29.8852C35.111 30.1294 35.5154 30.4726 35.85 30.8951C36.1847 31.3177 36.4432 31.8114 36.6107 32.348C36.7782 32.8846 36.8515 33.4536 36.8263 34.0225C36.8011 34.5914 36.678 35.1491 36.464 35.6637V35.6637Z" stroke="black" stroke-miterlimit="10"/>
</g>
<g opacity="0.3">
<path d="M236.611 76.841L228.353 96.6364L258.379 112.953L266.636 93.1576L236.611 76.841Z" stroke="black" stroke-miterlimit="10"/>
<path d="M240.115 81.1097C239.984 81.4239 239.801 81.7056 239.575 81.9387C239.349 82.1718 239.085 82.3517 238.797 82.4681C238.51 82.5846 238.206 82.6352 237.902 82.6173C237.597 82.5993 237.299 82.513 237.024 82.3633C236.936 82.313 236.856 82.2581 236.776 82.2032L232.034 93.5681C232.125 93.6017 232.215 93.6415 232.302 93.687C232.857 93.9898 233.283 94.5312 233.489 95.1925C233.694 95.8538 233.661 96.581 233.397 97.2146L233.328 97.3564L254.782 109.019C254.797 108.966 254.816 108.916 254.838 108.868C254.967 108.551 255.15 108.266 255.376 108.031C255.603 107.795 255.867 107.613 256.156 107.495C256.444 107.377 256.75 107.326 257.056 107.344C257.361 107.362 257.661 107.449 257.937 107.6C258.025 107.651 258.109 107.706 258.19 107.76L262.928 96.3956C262.838 96.3619 262.749 96.3222 262.663 96.2766C262.108 95.9747 261.68 95.4336 261.475 94.7722C261.269 94.1109 261.301 93.3832 261.565 92.7491C261.609 92.653 261.657 92.557 261.709 92.4655L240.219 80.8077C240.19 80.9109 240.156 81.0118 240.115 81.1097V81.1097ZM250.938 96.7799C250.615 97.5547 250.098 98.2027 249.452 98.642C248.807 99.0813 248.061 99.2922 247.311 99.2479C246.56 99.2037 245.837 98.9062 245.235 98.3933C244.632 97.8804 244.176 97.175 243.925 96.3664C243.674 95.5577 243.638 94.6822 243.823 93.8505C244.008 93.0188 244.404 92.2683 244.963 91.694C245.521 91.1197 246.217 90.7473 246.961 90.6241C247.704 90.5008 248.464 90.6321 249.142 91.0014C250.051 91.4971 250.75 92.384 251.086 93.4675C251.422 94.5509 251.367 95.7423 250.934 96.7799H250.938Z" stroke="black" stroke-miterlimit="10"/>
</g>
<g opacity="0.3">
<path d="M142.146 44.2585L153.42 62.0093L180.345 39.7314L169.07 21.9805L142.146 44.2585Z" stroke="black" stroke-miterlimit="10"/>
<path d="M147.084 42.7965C147.445 43.3644 147.593 44.0724 147.496 44.7648C147.399 45.4572 147.065 46.0772 146.567 46.4887C146.49 46.5542 146.408 46.6123 146.323 46.6625L152.797 56.8562C152.866 56.7811 152.94 56.7109 153.017 56.6457C153.515 56.2343 154.136 56.0653 154.744 56.176C155.351 56.2866 155.895 56.6679 156.256 57.2359C156.284 57.2799 156.309 57.3257 156.332 57.3732L175.573 41.4513L175.485 41.3278C175.124 40.7597 174.976 40.0514 175.072 39.3583C175.168 38.6652 175.501 38.044 175.998 37.631C176.078 37.567 176.163 37.5121 176.243 37.4572L169.749 27.2681C169.679 27.3429 169.605 27.4132 169.528 27.4786C169.03 27.8886 168.41 28.0567 167.804 27.946C167.198 27.8354 166.655 27.4551 166.293 26.8883C166.238 26.8021 166.187 26.7119 166.141 26.6184L146.9 42.554C146.966 42.6298 147.028 42.7108 147.084 42.7965V42.7965ZM164.321 39.452C164.762 40.1458 165.012 40.9732 165.04 41.8294C165.069 42.6856 164.874 43.5322 164.481 44.2622C164.088 44.9922 163.514 45.5728 162.832 45.9306C162.15 46.2884 161.39 46.4073 160.649 46.2724C159.908 46.1375 159.218 45.7547 158.667 45.1724C158.117 44.5902 157.73 43.8347 157.555 43.0014C157.38 42.1681 157.426 41.2944 157.687 40.4908C157.947 39.6871 158.41 38.9897 159.018 38.4866C159.832 37.8132 160.848 37.5366 161.841 37.7177C162.834 37.8987 163.723 38.5225 164.313 39.452H164.321Z" stroke="black" stroke-miterlimit="10"/>
</g>
<g opacity="0.15">
<path d="M13.9999 78.4285C16.5413 78.5246 21.7926 75.9807 21.7966 75.9807C21.8006 75.9807 19.2752 72.5402 19.0908 72.348C16.9622 70.1015 11.687 67.1871 8.86092 69.0081C6.82056 70.3212 6.47983 73.3271 7.7746 75.4134C9.06937 77.4997 11.8353 78.3507 13.9999 78.4285Z" fill="black"/>
<path d="M21.9369 95.1098C24.314 94.4647 28.495 90.7496 28.8277 90.4522C30.6783 93.1859 32.687 95.7751 34.8405 98.2027C36.0912 99.6301 37.39 101.016 38.7048 102.389C38.0233 101.867 37.41 101.401 37.3178 101.346C34.7403 99.8223 28.98 98.6007 26.6751 101.213C25.0115 103.094 25.3803 106.09 27.112 107.724C28.8437 109.357 31.7058 109.325 33.8143 108.749C35.9228 108.172 39.5706 105.088 40.5207 104.251L42.0439 105.82C44.5012 108.309 46.9584 110.78 49.3034 113.287C50.1292 114.17 50.9069 115.076 51.7086 115.977C51.0993 115.52 50.5862 115.126 50.506 115.062C47.9325 113.539 42.1722 112.317 39.8633 114.93C38.1997 116.806 38.5685 119.807 40.3002 121.436C42.0319 123.065 44.894 123.042 47.0025 122.465C49.0429 121.912 52.4061 119.098 53.5365 118.119C54.3382 119.07 55.1078 120.022 55.8294 120.983C56.3104 121.651 56.8155 122.259 57.2645 122.964L58.6234 125C59.4251 126.331 60.3029 127.699 61.0766 129.021C61.6218 129.937 62.1228 130.815 62.6359 131.707C61.8342 130.792 60.1947 129.108 60.0424 128.962C57.7014 127.008 52.1696 124.808 49.5399 126.99C47.6479 128.559 47.6158 131.588 49.111 133.501C50.6062 135.413 53.4403 135.875 55.5969 135.674C57.974 135.45 62.4315 132.64 62.9847 132.288C63.8265 133.757 64.6282 135.198 65.3698 136.575C66.0352 137.801 66.6525 138.977 67.2338 140.098L69.1258 139.243C68.4644 138.021 67.7589 136.744 66.9932 135.399C66.1474 133.903 65.2174 132.32 64.2474 130.705C65.4345 129.417 66.5548 128.052 67.6025 126.615C69.8113 127.823 74.5494 128.257 75.1587 128.308C75.1587 130.065 75.1226 131.771 75.0745 133.386C75.0478 134.493 75.0117 135.561 74.9663 136.589L76.9706 135.674C76.9706 134.942 76.9946 134.201 76.9986 133.432C77.0187 131.648 76.9986 129.74 76.9986 127.782C77.6119 127.663 82.6347 126.624 84.6149 125.087C86.4027 123.687 88.3349 121.34 88.4431 118.723C88.5513 116.106 86.8397 113.841 84.5067 113.987C81.2637 114.189 78.1892 119.88 77.4556 123.083C77.4115 123.27 77.1389 125.37 76.9906 126.716C76.9906 125.915 76.9666 125.142 76.9425 124.318C76.9024 122.689 76.8223 121.065 76.7381 119.317C76.6739 118.476 76.6098 117.629 76.5416 116.769C76.4735 115.909 76.3452 115.021 76.249 114.138C75.9845 112.098 75.6357 110.043 75.2389 107.985C76.4895 107.939 80.919 107.719 82.8792 106.639C84.8394 105.56 87.0561 103.579 87.5091 101.012C87.9621 98.4451 86.5751 95.9059 84.2461 95.6497C81.0152 95.2882 77.2231 100.385 76.0686 103.428C75.9965 103.615 75.3832 105.903 75.0705 107.166C74.822 105.93 74.5815 104.695 74.2969 103.45C73.4951 99.868 72.5491 96.2719 71.6392 92.6758C71.3586 91.5731 71.094 90.4751 70.8375 89.3724C71.2824 89.3724 76.5537 89.226 78.7504 87.9999C80.7025 86.9293 82.9273 84.9436 83.3803 82.3769C83.8332 79.8102 82.4463 77.2709 80.1173 77.0147C76.8864 76.6533 73.0903 81.7501 71.9398 84.7926C71.8516 85.0214 70.9738 88.3156 70.7894 89.162C70.1921 86.7371 69.6148 84.3168 69.1338 81.9011C68.4699 78.6442 67.9919 75.3415 67.7028 72.014C67.9072 72.014 73.415 71.8996 75.6638 70.6414C77.6119 69.5708 79.8367 67.5851 80.2897 65.0184C80.7426 62.4517 79.3557 59.9125 77.0267 59.6517C73.7958 59.2948 70.0037 64.3916 68.8492 67.4296C68.761 67.6721 67.819 71.2087 67.6867 71.8676C67.6867 71.6754 67.6346 71.4741 67.6226 71.2819C67.4113 67.9282 67.4622 64.5597 67.7749 61.2164C67.9272 59.3863 68.1758 57.6203 68.4243 55.9183C69.4545 56.0189 74.1525 56.4124 76.2851 55.5523C78.3255 54.7287 80.7306 53.0359 81.4241 50.5424C82.1176 48.0489 80.9872 45.3495 78.6983 44.8004C75.5195 44.041 71.2584 48.6299 69.8233 51.5032C69.7431 51.6587 69.1017 53.3333 68.6528 54.5869C68.7811 53.8228 68.9013 53.0267 69.0536 52.2993C69.5587 49.5541 70.168 47.0789 70.7252 44.8919C71.0499 43.6475 71.3666 42.5311 71.6712 41.4925C72.7215 40.9893 76.9425 38.9029 78.4577 37.0546C79.973 35.2062 81.388 32.4793 80.9992 29.8989C80.6104 27.3184 78.5179 25.5249 76.2611 26.2387C73.1344 27.2361 71.2062 33.5591 71.09 36.8578C71.09 37.1415 71.3746 41.6344 71.4267 41.6069L71.4909 41.5795C71.1782 42.5723 70.8575 43.6429 70.5248 44.8187C69.9235 46.9966 69.2661 49.4672 68.7049 52.2078C68.074 55.155 67.5935 58.1415 67.2658 61.1523C66.886 64.5211 66.7693 67.9217 66.9171 71.314V71.4375C66.5804 70.4218 65.5582 67.6172 65.458 67.4113C64.0469 64.5197 59.846 59.8759 56.6391 60.5987C54.3462 61.1157 53.2038 63.8517 53.8612 66.3041C54.5186 68.7564 56.9157 70.5316 58.9521 71.378C61.249 72.3342 66.5283 71.8721 66.9492 71.8355C67.1756 75.2849 67.6028 78.7132 68.2279 82.0978C68.5846 84.0697 68.9935 86.0462 69.4305 88.0182C69.1138 87.1534 68.8252 86.3802 68.773 86.275C67.362 83.3834 63.1611 78.7396 59.9542 79.4625C57.6613 79.984 56.5148 82.7155 57.1723 85.1678C57.8297 87.6201 60.2308 89.3953 62.2671 90.2417C64.3035 91.0882 68.8412 90.8136 70.0317 90.6993C70.2081 91.4542 70.3725 92.2091 70.5488 92.9869C71.3906 96.6105 72.2485 100.216 72.9941 103.789C73.2546 105.047 73.4751 106.296 73.6956 107.545C73.415 106.772 73.1745 106.127 73.1264 106.035C71.7153 103.139 67.5144 98.4955 64.3075 99.2184C62.0146 99.7399 60.8682 102.476 61.5256 104.928C62.183 107.381 64.5841 109.156 66.6204 110.002C68.5886 110.821 72.7536 110.597 74.1726 110.492C74.365 111.777 74.5734 113.068 74.7017 114.326C74.7779 115.186 74.9021 116.009 74.9382 116.879C74.9743 117.748 75.0384 118.59 75.0865 119.432C75.1306 121.061 75.1827 122.74 75.1908 124.332C75.1908 125.434 75.1908 126.491 75.1908 127.535C74.9422 126.281 74.389 123.833 74.345 123.636C73.3701 120.942 71.8048 118.579 69.7992 116.774C69.7036 116.468 69.5828 116.174 69.4385 115.895C68.284 113.694 65.7426 112.83 63.8626 114.422C61.257 116.632 61.4574 123.316 62.3794 126.45C62.4355 126.633 63.2292 128.564 63.7463 129.772C63.3454 129.118 62.9646 128.472 62.5437 127.8C61.742 126.468 60.8722 125.165 59.9582 123.76L58.5632 121.756C58.1063 121.079 57.5531 120.425 57.044 119.747C55.8414 118.21 54.5547 116.719 53.2278 115.25C54.25 114.426 57.8377 111.453 58.9521 109.302C60.0664 107.152 60.9563 104.123 60.0945 101.698C59.2327 99.2733 56.8476 98.0379 54.7791 99.2778C51.909 101.012 51.2115 107.651 51.7166 110.908C51.7487 111.114 52.3419 113.406 52.6907 114.66C51.889 113.781 51.0872 112.903 50.2535 112.047C47.8483 109.572 45.3229 107.156 42.8256 104.727C42.06 103.986 41.3063 103.235 40.5487 102.49C40.9135 102.201 45.2468 98.7654 46.4934 96.3771C47.6038 94.2542 48.4977 91.1934 47.6359 88.7685C46.774 86.3436 44.3889 85.1083 42.3205 86.3482C39.4504 88.0868 38.7489 94.7255 39.258 97.983C39.294 98.2301 40.1519 101.524 40.4084 102.352C38.7409 100.705 37.0893 99.0445 35.522 97.3196C33.3937 95.0208 31.3973 92.568 29.5452 89.9764C29.7176 89.8391 34.2513 86.2796 35.53 83.8318C36.6404 81.7089 37.5343 78.6526 36.6724 76.2278C35.8106 73.8029 33.4255 72.5676 31.3611 73.8075C28.4869 75.5415 27.7895 82.1802 28.2945 85.4377C28.3346 85.6939 29.2606 89.2398 29.469 89.8711C29.3608 89.7202 29.2365 89.5783 29.1323 89.4136C27.3368 86.7962 25.7485 84.002 24.3862 81.0638C23.6205 79.4304 22.9712 77.82 22.3819 76.2369C23.2838 75.6742 27.3926 73.0342 28.7555 70.9845C30.0623 69.0126 31.2488 66.0845 30.6235 63.5681C29.9982 61.0517 27.7494 59.5144 25.5767 60.4981C22.5543 61.8707 21.2194 68.3721 21.4078 71.6754C21.4078 71.8538 21.7004 73.6656 21.9249 74.9833C21.6604 74.265 21.3798 73.5284 21.1232 72.8329C20.2173 70.225 19.5198 67.8002 18.9385 65.5995C18.6098 64.3596 18.3332 63.2295 18.0847 62.1726C18.7181 61.0883 21.2274 56.6823 21.6002 54.1934C21.973 51.7045 21.8327 48.5384 20.2614 46.6305C18.69 44.7227 16.0764 44.5442 14.5411 46.5573C12.4126 49.3574 13.8557 55.8405 15.3429 58.6726C15.4711 58.9151 17.8883 62.4746 17.9204 62.4197L17.9604 62.3556C18.1809 63.3805 18.4294 64.4785 18.7181 65.6681C19.2712 67.8642 19.9206 70.3349 20.7745 72.9885C21.6701 75.8456 22.7128 78.6399 23.8971 81.3566C25.2077 84.4057 26.7545 87.3149 28.519 90.0496L28.5872 90.1457C27.8135 89.5097 25.6048 87.8169 25.4204 87.7071C22.8469 86.1835 17.0866 84.9619 14.7817 87.5744C13.1181 89.4548 13.4829 92.4516 15.2186 94.0849C16.9543 95.7183 19.8284 95.7046 21.9369 95.1098Z" fill="black"/>
<path d="M68.0393 55.4104C68.0994 55.4104 67.6024 50.9541 67.5423 50.6796C66.8488 47.4769 63.8584 41.7121 60.6195 41.4513C58.2865 41.2592 56.5508 43.5559 56.6109 46.1135C56.671 48.6711 58.5791 51.1142 60.3469 52.5463C62.4273 54.2254 68.0353 55.4104 68.0393 55.4104Z" fill="black"/>
</g>
<g opacity="0.15">
<path d="M151.497 126.025C154.44 126.135 160.517 123.193 160.525 123.188C160.533 123.183 157.607 119.208 157.394 118.983C154.925 116.38 148.82 113.008 145.545 115.117C143.184 116.636 142.791 120.114 144.29 122.538C145.789 124.963 148.988 125.933 151.497 126.025Z" fill="black"/>
<path d="M210.985 193.39L211.217 193.848H213.875C213.55 193.258 213.214 192.663 212.869 192.05C211.887 190.316 210.808 188.481 209.686 186.615C211.06 185.124 212.357 183.542 213.57 181.879C216.128 183.275 221.611 183.778 222.321 183.837C222.321 185.873 222.277 187.85 222.225 189.717C222.189 191.002 222.145 192.233 222.096 193.423L224.417 192.37C224.417 191.524 224.445 190.664 224.454 189.767C224.454 187.703 224.454 185.498 224.425 183.229C225.139 183.087 230.951 181.893 233.244 180.109C235.313 178.489 237.554 175.767 237.678 172.742C237.802 169.718 235.826 167.087 233.116 167.252C229.364 167.485 225.804 174.078 224.955 177.775C224.902 177.995 224.59 180.438 224.413 181.98C224.413 181.065 224.385 180.15 224.357 179.203C224.313 177.318 224.221 175.437 224.125 173.415C224.047 172.442 223.971 171.458 223.896 170.464C223.84 169.476 223.668 168.442 223.556 167.417C223.251 165.056 222.846 162.677 222.389 160.293C223.832 160.243 228.967 159.982 231.236 158.733C233.505 157.484 236.07 155.192 236.595 152.222C237.121 149.253 235.513 146.311 232.819 146.009C229.075 145.593 224.682 151.5 223.347 155.009C223.263 155.228 222.545 157.877 222.189 159.337C221.904 157.909 221.627 156.477 221.299 155.041C220.349 150.891 219.274 146.723 218.22 142.56C217.896 141.288 217.587 140.011 217.274 138.739C217.787 138.739 223.892 138.57 226.434 137.17C228.695 135.93 231.272 133.629 231.793 130.659C232.314 127.69 230.715 124.748 228.017 124.446C224.273 124.03 219.884 129.936 218.549 133.446C218.449 133.711 217.43 137.522 217.214 138.506C216.525 135.697 215.859 132.892 215.302 130.097C214.532 126.329 213.977 122.508 213.642 118.659C213.879 118.659 220.257 118.526 222.862 117.094C225.123 115.849 227.696 113.548 228.222 110.579C228.747 107.609 227.143 104.667 224.446 104.37C220.702 103.949 216.312 109.86 214.973 113.37C214.869 113.644 213.771 117.743 213.626 118.503C213.626 118.279 213.57 118.045 213.554 117.826C213.31 113.952 213.369 110.062 213.731 106.2C213.907 104.063 214.18 102.032 214.484 100.065C215.687 100.179 221.114 100.632 223.584 99.6392C225.949 98.6876 228.731 96.7248 229.532 93.8378C230.334 90.9508 229.031 87.8305 226.378 87.19C222.698 86.307 217.767 91.6234 216.1 94.9679C216.011 95.1509 215.266 97.1045 214.745 98.5412C214.893 97.6536 215.033 96.7385 215.19 95.8921C215.775 92.6894 216.484 89.8482 217.126 87.3135C217.503 85.8769 217.867 84.5684 218.224 83.3788C219.427 82.7978 224.325 80.3775 226.081 78.2408C227.837 76.1042 229.476 72.9427 229.023 69.9596C228.57 66.9766 226.149 64.8903 223.54 65.7184C219.932 66.8713 217.683 74.1826 217.551 78.0121C217.551 78.3415 217.875 83.5435 217.952 83.5023L218.028 83.4703C217.667 84.6187 217.294 85.8586 216.905 87.222C216.212 89.743 215.45 92.6025 214.801 95.7777C214.071 99.1894 213.514 102.646 213.133 106.131C212.695 110.033 212.561 113.971 212.732 117.899C212.732 117.945 212.732 117.995 212.732 118.041C212.332 116.865 211.157 113.617 211.041 113.379C209.409 110.03 204.527 104.654 200.839 105.491C198.181 106.095 196.859 109.261 197.632 112.098C198.406 114.934 201.172 116.993 203.525 117.972C206.182 119.084 212.3 118.544 212.785 118.498C213.048 122.497 213.543 126.471 214.268 130.394C214.669 132.682 215.154 134.969 215.659 137.257C215.29 136.25 214.957 135.354 214.901 135.235C213.266 131.886 208.387 126.51 204.695 127.347C202.038 127.951 200.715 131.117 201.488 133.954C202.262 136.79 205.028 138.849 207.385 139.828C209.742 140.807 215.001 140.487 216.38 140.377C216.581 141.251 216.781 142.129 216.974 143.003C217.952 147.194 218.946 151.371 219.808 155.507C220.112 156.962 220.365 158.408 220.609 159.854C220.285 158.966 220.004 158.216 219.948 158.106C218.316 154.757 213.438 149.381 209.746 150.219C207.088 150.822 205.766 153.989 206.539 156.825C207.313 159.662 210.079 161.721 212.436 162.7C214.717 163.651 219.539 163.391 221.183 163.267C221.407 164.759 221.631 166.25 221.792 167.705C221.88 168.702 222.024 169.654 222.068 170.665C222.113 171.676 222.185 172.646 222.241 173.621C222.289 175.506 222.353 177.45 222.361 179.294C222.361 180.571 222.361 181.792 222.361 183.023C222.072 181.568 221.455 178.736 221.383 178.507C220.251 175.392 218.439 172.659 216.12 170.569C216.006 170.217 215.866 169.877 215.699 169.553C214.364 167.005 211.418 166.003 209.245 167.847C206.227 170.404 206.439 178.146 207.525 181.774C207.589 181.989 208.507 184.222 209.129 185.622C208.664 184.862 208.223 184.116 207.742 183.334C206.792 181.792 205.806 180.282 204.747 178.654L203.144 176.334C202.619 175.547 201.977 174.792 201.388 174.01C199.993 172.23 198.506 170.501 196.979 168.803C198.161 167.851 202.318 164.402 203.605 161.94C204.892 159.479 205.926 155.942 204.928 153.133C203.93 150.324 201.172 148.883 198.775 150.333C195.452 152.341 194.642 160.028 195.227 163.802C195.263 164.036 195.953 166.689 196.353 168.14C195.423 167.124 194.501 166.108 193.547 165.116C190.741 162.251 187.843 159.451 184.949 156.647C184.063 155.787 183.189 154.922 182.311 154.053C182.736 153.719 187.751 149.743 189.198 146.979C190.481 144.518 191.519 140.977 190.517 138.172C189.515 135.367 186.761 133.922 184.368 135.367C181.045 137.38 180.231 145.062 180.816 148.837C180.86 149.12 181.854 152.955 182.151 153.897C180.219 151.989 178.307 150.068 176.491 148.091C174.027 145.429 171.716 142.588 169.572 139.586C169.773 139.43 175.024 135.308 176.503 132.476C177.79 130.014 178.824 126.478 177.826 123.668C176.828 120.859 174.066 119.418 171.673 120.868C168.35 122.877 167.54 130.563 168.125 134.333C168.169 134.631 169.244 138.739 169.484 139.467C169.36 139.293 169.215 139.128 169.083 138.95C166.977 135.863 165.116 132.568 163.523 129.104C162.637 127.21 161.884 125.347 161.186 123.513C162.233 122.859 166.991 119.811 168.57 117.432C170.081 115.145 171.452 111.759 170.731 108.845C170.009 105.93 167.404 104.146 164.886 105.285C161.387 106.868 159.843 114.404 160.076 118.228C160.076 118.439 160.417 120.516 160.673 122.062C160.369 121.23 160.04 120.374 159.763 119.569C158.717 116.554 157.919 113.717 157.234 111.196C156.853 109.76 156.532 108.451 156.248 107.225C156.981 105.971 159.888 100.879 160.316 97.9876C160.737 95.1646 160.585 91.4358 158.769 89.2306C156.953 87.0253 153.919 86.8148 152.143 89.1482C149.678 92.392 151.341 99.8954 153.089 103.171C153.241 103.455 156.035 107.577 156.075 107.513L156.119 107.44C156.376 108.625 156.661 109.897 157.001 111.274C157.639 113.813 158.384 116.682 159.378 119.734C160.414 123.04 161.619 126.274 162.986 129.419C164.505 132.949 166.296 136.318 168.338 139.485L168.418 139.595C167.524 138.858 164.962 136.9 164.754 136.772C161.772 135.006 155.101 133.597 152.432 136.616C150.507 138.794 150.932 142.267 152.937 144.156C154.941 146.046 158.256 146.009 160.697 145.346C163.447 144.596 168.289 140.313 168.674 139.952C170.821 143.118 173.151 146.117 175.649 148.928C177.096 150.575 178.6 152.181 180.123 153.773C179.321 153.165 178.624 152.63 178.519 152.566C175.537 150.8 168.871 149.39 166.197 152.41C164.273 154.583 164.698 158.06 166.706 159.945C168.714 161.83 172.021 161.803 174.463 161.135C176.904 160.467 181.129 156.894 182.227 155.928C182.821 156.532 183.402 157.141 183.995 157.759C186.837 160.641 189.683 163.5 192.413 166.406C193.371 167.426 194.281 168.474 195.195 169.521C194.489 168.982 193.896 168.533 193.8 168.474C190.818 166.712 184.147 165.299 181.478 168.318C179.55 170.496 179.978 173.969 181.983 175.858C183.987 177.748 187.302 177.711 189.743 177.048C192.104 176.403 196.001 173.15 197.307 172.015C198.217 173.118 199.127 174.22 199.965 175.337C200.522 176.11 201.104 176.814 201.625 177.624L203.196 179.98C204.15 181.522 205.14 183.105 206.038 184.638C206.668 185.695 207.241 186.715 207.842 187.745C206.9 186.715 205.016 184.739 204.844 184.597C202.13 182.337 195.724 179.788 192.682 182.309C190.489 184.139 190.449 187.639 192.185 189.849C193.92 192.059 197.195 192.594 199.693 192.366C202.446 192.109 207.605 188.856 208.247 188.445C209.197 190.133 210.127 191.785 210.985 193.39Z" fill="black"/>
<path d="M214.068 99.3648C214.136 99.3648 213.558 94.2039 213.49 93.8745C212.689 90.1503 209.225 83.4933 205.473 83.1913C202.767 82.9717 200.759 85.6254 200.839 88.5901C200.919 91.5549 203.12 94.3778 205.164 96.0386C207.57 97.9922 214.063 99.3648 214.068 99.3648Z" fill="black"/>
</g>
<path d="M63.2006 140.309H16.7573V150.681H63.2006V140.309Z" fill="white" stroke="#263238" stroke-linecap="round" stroke-linejoin="round"/>
<path d="M76.0605 129.41H29.6172V140.309H76.0605V129.41Z" fill="white" stroke="#263238" stroke-linecap="round" stroke-linejoin="round"/>
<path d="M88.9237 118.508H42.4805V129.406H88.9237V118.508Z" fill="white" stroke="#263238" stroke-linecap="round" stroke-linejoin="round"/>
<path d="M101.784 107.609H55.3403V118.508H101.784V107.609Z" fill="white" stroke="#263238" stroke-linecap="round" stroke-linejoin="round"/>
<path d="M115.124 193.83V107.609H101.787V118.508H88.9237V129.41H76.0642V140.309H63.2007V193.83H115.124Z" fill="#263238" stroke="#263238" stroke-linecap="round" stroke-linejoin="round"/>
<path d="M115.124 183.453H68.6807V193.825H115.124V183.453Z" fill="white" stroke="#263238" stroke-linecap="round" stroke-linejoin="round"/>
<path d="M55.8214 183.453H102.265V172.555H55.8214V183.453Z" fill="white" stroke="#263238" stroke-linecap="round" stroke-linejoin="round"/>
<path d="M42.9576 172.555H89.4009V161.652H42.9576V172.555Z" fill="white" stroke="#263238" stroke-linecap="round" stroke-linejoin="round"/>
<path d="M30.0943 161.652H76.5376V150.754H30.0943V161.652Z" fill="white" stroke="#263238" stroke-linecap="round" stroke-linejoin="round"/>
<path d="M16.7573 193.83V150.754H30.0938V161.652H42.9533V172.555H55.8168V183.453H68.6803V193.83H16.7573Z" fill="#263238" stroke="#263238" stroke-linecap="round" stroke-linejoin="round"/>
<path d="M254.546 128.331L251.524 139.627L244.821 133.748C244.72 133.014 244.586 132.288 244.42 131.57C244.288 131.213 243.49 130.152 243.31 129.74C243.13 129.328 242.869 129.689 242.869 129.996C242.869 130.303 243.49 131.314 243.49 131.314L243.178 131.666L240.692 130.316C240.663 130.301 240.632 130.292 240.6 130.291C240.568 130.29 240.537 130.296 240.507 130.308C240.477 130.321 240.45 130.341 240.427 130.365C240.403 130.39 240.385 130.42 240.372 130.454C240.348 130.509 240.342 130.573 240.356 130.633C240.369 130.693 240.4 130.746 240.444 130.783L241.803 131.973L241.626 132.375L239.362 131.314C239.333 131.301 239.302 131.294 239.271 131.295C239.241 131.296 239.21 131.304 239.182 131.318C239.154 131.333 239.129 131.354 239.108 131.38C239.087 131.406 239.071 131.436 239.061 131.469C239.045 131.525 239.047 131.585 239.065 131.64C239.083 131.695 239.117 131.741 239.161 131.771L241.225 133.144L239.879 133.446C239.847 133.453 239.818 133.468 239.791 133.489C239.765 133.51 239.744 133.537 239.727 133.569C239.711 133.6 239.701 133.635 239.697 133.672C239.694 133.708 239.697 133.745 239.706 133.78C239.722 133.831 239.751 133.876 239.79 133.908C239.829 133.94 239.875 133.957 239.923 133.958H241.314L240.111 134.461C240.111 134.461 240.267 134.859 240.512 134.846L241.935 134.768L244.023 134.919C244.023 134.919 250.81 143.04 251.034 143.287C251.259 143.534 252.59 144.088 252.854 143.786C253.119 143.484 256.097 139.375 256.097 139.375L255.652 128.738C255.652 128.738 255.211 127.731 254.546 128.331Z" fill="white" stroke="#263238" stroke-linecap="round" stroke-linejoin="round"/>
<path d="M256.149 115.3C256.149 115.3 254.855 115.401 254.245 113.013C253.636 110.625 255.199 109.947 256.065 109.751C256.931 109.554 257.103 107.381 258.575 107.083C260.046 106.786 261.601 108.172 261.95 109.371C262.299 110.57 264.547 108.776 265.842 110.359C267.137 111.942 267.045 114.998 267.045 116.087C267.045 117.176 269.987 117.373 269.987 119.94C269.987 122.506 269.638 123.792 269.811 124.186C269.983 124.579 271.282 132.668 271.282 132.668H255.131C255.131 132.668 254.614 126.757 255.219 125.274C255.825 123.792 256.346 123.691 256.602 122.31C256.859 120.928 256.602 118.755 256.43 117.766C256.3 116.95 256.206 116.127 256.149 115.3Z" fill="#263238" stroke="#263238" stroke-linecap="round" stroke-linejoin="round"/>
<path d="M259.268 125.672L254.421 125.773L255.371 139.302L264.547 140.094L268.872 126.066L263.681 125.576L259.268 125.672Z" fill="#263238" stroke="#263238" stroke-linecap="round" stroke-linejoin="round"/>
<path d="M257.709 112.139C257.709 112.139 256.41 114.216 256.149 115.3C255.809 116.554 255.734 117.883 255.933 119.176C256.193 120.658 256.931 123.106 257.448 123.293C257.965 123.481 259.352 123.293 259.352 123.293L259.268 125.663H258.575L258.659 129.218L261.95 129.415L263.682 125.563L262.816 125.366L262.21 119.542C262.21 119.542 263.072 118.453 263.16 117.661C263.209 117.268 263.239 116.873 263.249 116.476C263.249 116.476 262.21 117.368 261.345 116.476C260.479 115.584 260.218 114.6 259.958 113.612C259.697 112.624 259.18 111.837 258.755 111.837C258.394 111.873 258.041 111.975 257.709 112.139Z" fill="white" stroke="#263238" stroke-linecap="round" stroke-linejoin="round"/>
<path d="M259.352 123.302L260.823 122.708L259.44 124.487L259.352 123.302Z" fill="#263238" stroke="#263238" stroke-linecap="round" stroke-linejoin="round"/>
<path d="M255.372 139.302L254.422 142.761C254.422 142.761 250.958 147.007 250.265 154.908C249.571 162.81 250.698 170.615 251.046 173.776C251.395 176.938 254.73 190.911 254.73 190.911H256.983C256.983 190.911 256.149 177.926 256.149 176.641V169.43L262.511 189.396L264.591 189.497C264.591 189.497 263.758 180.067 263.241 176.229C262.883 173.706 262.394 171.21 261.777 168.753C261.777 168.753 266.355 158.385 266.355 151.257C266.355 144.129 264.796 142.564 264.796 142.564L264.539 140.094L255.372 139.302Z" fill="#BABABA" stroke="#263238" stroke-linecap="round" stroke-linejoin="round"/>
<path d="M258.149 150.15C258.45 148.608 258.658 147.592 258.658 147.592" stroke="#263238" stroke-linecap="round" stroke-linejoin="round"/>
<path d="M256.149 169.43C256.149 169.43 255.805 167.453 256.065 163.208C256.217 160.7 257.091 155.723 257.785 152.062" stroke="#263238" stroke-linecap="round" stroke-linejoin="round"/>
<path d="M254.73 190.911C254.73 190.911 250.666 193.084 250.666 193.578C250.666 194.072 257.155 193.578 257.155 193.578C257.306 193.104 257.364 192.598 257.328 192.096C257.275 191.681 257.158 191.279 256.983 190.911H254.73Z" fill="white" stroke="#263238" stroke-linecap="round" stroke-linejoin="round"/>
<path d="M262.511 189.396C262.511 189.396 260.611 192.164 260.002 192.855C259.392 193.546 259.569 194.04 260.09 194.04C260.611 194.04 263.553 193.844 264.07 193.45C264.364 193.234 264.626 192.967 264.848 192.659L264.592 189.497L262.511 189.396Z" fill="white" stroke="#263238" stroke-linecap="round" stroke-linejoin="round"/>
<path d="M268.36 127.846C268.36 127.846 269.141 140.981 268.448 142.367C267.754 143.754 265.766 142.958 265.594 142.367C265.421 141.777 265.766 136.635 265.766 136.635L268.36 127.846Z" fill="white" stroke="#263238" stroke-linecap="round" stroke-linejoin="round"/>
<path d="M247.282 96.4302L210.598 102.531L219.852 175.02L256.536 168.919L247.282 96.4302Z" fill="#CDCA62" stroke="#263238" stroke-linecap="round" stroke-linejoin="round"/>
<path d="M245.038 107.399C244.456 107.496 243.864 107.462 243.295 107.297C242.725 107.133 242.19 106.842 241.719 106.441C241.248 106.041 240.851 105.538 240.55 104.962C240.249 104.386 240.051 103.748 239.967 103.085C239.943 102.875 239.93 102.664 239.927 102.453L218.862 105.953C218.914 106.156 218.954 106.362 218.982 106.571C219.152 107.911 218.848 109.273 218.139 110.358C217.429 111.443 216.372 112.163 215.198 112.359C215.106 112.359 215.017 112.381 214.925 112.391L221.531 164.182C221.624 164.159 221.712 164.137 221.804 164.123C222.386 164.026 222.979 164.061 223.549 164.226C224.12 164.391 224.656 164.683 225.127 165.085C225.598 165.487 225.995 165.992 226.295 166.569C226.595 167.147 226.792 167.786 226.875 168.451C226.901 168.66 226.916 168.871 226.919 169.082L247.98 165.582C247.928 165.378 247.89 165.17 247.864 164.96C247.779 164.297 247.809 163.621 247.953 162.971C248.097 162.322 248.352 161.711 248.703 161.174C249.054 160.637 249.494 160.184 249.999 159.841C250.504 159.498 251.063 159.273 251.644 159.177C251.827 159.147 252.012 159.13 252.197 159.127L245.579 107.266C245.401 107.322 245.22 107.367 245.038 107.399ZM234.615 144.001C233.181 144.24 231.716 143.987 230.407 143.276C229.097 142.565 228.002 141.426 227.26 140.005C226.518 138.583 226.161 136.942 226.236 135.289C226.311 133.636 226.813 132.046 227.68 130.719C228.546 129.392 229.738 128.388 231.104 127.835C232.471 127.281 233.95 127.202 235.356 127.608C236.762 128.014 238.031 128.886 239.002 130.115C239.973 131.344 240.603 132.874 240.813 134.512C240.954 135.601 240.906 136.711 240.671 137.778C240.435 138.846 240.018 139.85 239.442 140.733C238.867 141.616 238.144 142.361 237.316 142.925C236.487 143.489 235.57 143.861 234.615 144.019V144.001Z" fill="white" stroke="#263238" stroke-linecap="round" stroke-linejoin="round"/>
<path d="M241.188 97.9782L205.229 108.979L221.916 180.036L257.875 169.035L241.188 97.9782Z" fill="#CDCA62" stroke="#263238" stroke-width="1.00424" stroke-linecap="round" stroke-linejoin="round"/>
<path d="M238.912 109.142C237.767 109.492 236.547 109.308 235.52 108.631C234.493 107.954 233.744 106.839 233.437 105.532C233.391 105.327 233.355 105.119 233.329 104.91L212.769 111.187C212.839 111.383 212.899 111.583 212.949 111.787C213.101 112.434 213.14 113.11 213.063 113.775C212.986 114.439 212.795 115.08 212.501 115.661C212.207 116.241 211.815 116.75 211.349 117.158C210.882 117.565 210.35 117.864 209.782 118.036C209.694 118.064 209.602 118.082 209.514 118.105L221.363 168.666L221.628 168.57C222.195 168.396 222.786 168.352 223.369 168.439C223.951 168.527 224.512 168.745 225.021 169.08C225.529 169.415 225.975 169.861 226.332 170.393C226.69 170.925 226.952 171.532 227.103 172.18C227.151 172.384 227.187 172.592 227.211 172.802L247.771 166.525C247.701 166.329 247.641 166.129 247.591 165.925C247.285 164.617 247.447 163.224 248.041 162.052C248.634 160.88 249.612 160.025 250.758 159.676C250.937 159.619 251.119 159.577 251.303 159.552L239.438 108.936C239.266 109.017 239.091 109.086 238.912 109.142ZM232.282 146.897C230.881 147.32 229.401 147.259 228.03 146.722C226.659 146.186 225.458 145.197 224.579 143.882C223.7 142.566 223.182 140.983 223.092 139.332C223.001 137.681 223.341 136.036 224.068 134.605C224.796 133.174 225.879 132.022 227.181 131.293C228.482 130.565 229.943 130.293 231.38 130.512C232.817 130.732 234.164 131.432 235.252 132.525C236.341 133.618 237.12 135.054 237.493 136.653C237.742 137.716 237.804 138.825 237.677 139.916C237.55 141.007 237.235 142.058 236.751 143.009C236.267 143.961 235.623 144.794 234.856 145.461C234.089 146.129 233.215 146.616 232.282 146.897Z" fill="white" stroke="#263238" stroke-linecap="round" stroke-linejoin="round"/>
<path d="M266.355 140.194L253.46 139.897C253.46 139.897 250.862 138.909 250.429 138.909C249.821 139.02 249.223 139.193 248.641 139.426C248.586 139.446 248.539 139.489 248.509 139.546C248.479 139.603 248.469 139.671 248.481 139.737C248.494 139.805 248.529 139.866 248.58 139.905C248.631 139.944 248.693 139.959 248.754 139.947L250 139.7L250.345 139.993L247.848 141.823C247.797 141.861 247.76 141.919 247.746 141.986C247.731 142.053 247.739 142.124 247.768 142.184C247.797 142.246 247.845 142.293 247.903 142.315C247.961 142.337 248.025 142.333 248.08 142.303L249.956 141.297L250.02 141.837L248.016 143.031C247.953 143.069 247.904 143.133 247.878 143.209C247.853 143.286 247.854 143.371 247.88 143.447C247.906 143.52 247.955 143.581 248.016 143.618C248.078 143.654 248.149 143.665 248.217 143.649L248.95 143.456C249.035 143.575 249.148 143.662 249.275 143.708C249.402 143.755 249.539 143.758 249.668 143.717L251.035 143.26L250.169 143.891C250.135 143.914 250.106 143.946 250.086 143.984C250.065 144.022 250.052 144.065 250.048 144.109C250.045 144.154 250.051 144.199 250.065 144.24C250.08 144.282 250.103 144.319 250.133 144.349C250.176 144.387 250.23 144.408 250.285 144.408C250.34 144.408 250.394 144.387 250.437 144.349L252.169 142.999L253.652 141.919L266.72 144.545C266.72 144.545 267.822 144.655 268.015 144.403C268.207 144.152 268.58 141.773 268.612 141.16" fill="white"/>
<path d="M266.355 140.194L253.46 139.897C253.46 139.897 250.862 138.909 250.429 138.909C249.821 139.02 249.223 139.193 248.641 139.426C248.586 139.446 248.539 139.489 248.509 139.546C248.479 139.603 248.469 139.671 248.481 139.737V139.737C248.494 139.805 248.529 139.866 248.58 139.905C248.631 139.944 248.693 139.959 248.754 139.947L250 139.7L250.345 139.993L247.848 141.823C247.797 141.861 247.76 141.919 247.746 141.986C247.731 142.053 247.739 142.124 247.768 142.184V142.184C247.797 142.246 247.845 142.293 247.903 142.315C247.961 142.337 248.025 142.333 248.08 142.303L249.956 141.297L250.02 141.837L248.016 143.031C247.953 143.069 247.904 143.133 247.878 143.209C247.853 143.286 247.854 143.371 247.88 143.447C247.906 143.52 247.955 143.581 248.016 143.618C248.078 143.654 248.149 143.665 248.217 143.649L248.95 143.456C249.035 143.575 249.148 143.662 249.275 143.708C249.402 143.755 249.539 143.758 249.668 143.717L251.035 143.26L250.169 143.891C250.135 143.914 250.106 143.946 250.086 143.984C250.065 144.022 250.052 144.065 250.048 144.109C250.045 144.154 250.051 144.199 250.065 144.24C250.08 144.282 250.103 144.319 250.133 144.349V144.349C250.176 144.387 250.23 144.408 250.285 144.408C250.34 144.408 250.394 144.387 250.437 144.349L252.169 142.999L253.652 141.919L266.72 144.545C266.72 144.545 267.822 144.655 268.015 144.403C268.207 144.152 268.58 141.773 268.612 141.16" stroke="#263238" stroke-linecap="round" stroke-linejoin="round"/>
<path d="M248.954 143.465L250.722 142.711" stroke="#263238" stroke-linecap="round" stroke-linejoin="round"/>
<path d="M257.308 116.595C257.308 116.934 257.155 117.213 256.963 117.213C256.77 117.213 256.618 116.934 256.618 116.595C256.618 116.257 256.774 115.982 256.963 115.982C257.151 115.982 257.308 116.257 257.308 116.595Z" fill="#263238"/>
<path d="M259.244 117.062C259.244 117.4 259.087 117.675 258.899 117.675C258.711 117.675 258.554 117.4 258.554 117.062C258.554 116.723 258.711 116.449 258.899 116.449C259.087 116.449 259.244 116.723 259.244 117.062Z" fill="#263238"/>
<path d="M256.534 115.2C256.534 115.2 256.879 114.706 257.564 115.245" stroke="#263238" stroke-linecap="round" stroke-linejoin="round"/>
<path d="M258.51 115.492C258.745 115.387 259.007 115.389 259.24 115.499C259.473 115.609 259.66 115.818 259.761 116.083" stroke="#263238" stroke-linecap="round" stroke-linejoin="round"/>
<path d="M257.652 116.623C257.699 116.917 257.683 117.219 257.608 117.506C257.48 117.849 256.879 118.485 256.923 118.636C256.967 118.787 257.263 118.878 257.263 118.878" stroke="#263238" stroke-linecap="round" stroke-linejoin="round"/>
<path d="M256.879 120.059C256.879 120.059 258.081 120.695 259.027 119.812" stroke="#263238" stroke-linecap="round" stroke-linejoin="round"/>
<path d="M123.097 82.6515C130.726 82.6515 136.911 75.5927 136.911 66.8852C136.911 58.1777 130.726 51.1189 123.097 51.1189C115.468 51.1189 109.284 58.1777 109.284 66.8852C109.284 75.5927 115.468 82.6515 123.097 82.6515Z" fill="white" stroke="#263238" stroke-linecap="round" stroke-linejoin="round"/>
<path d="M124.492 82.6515C132.121 82.6515 138.306 75.5927 138.306 66.8852C138.306 58.1777 132.121 51.1189 124.492 51.1189C116.863 51.1189 110.679 58.1777 110.679 66.8852C110.679 75.5927 116.863 82.6515 124.492 82.6515Z" fill="white" stroke="#263238" stroke-linecap="round" stroke-linejoin="round"/>
<path d="M132.782 76.3443C137.359 71.1199 137.359 62.6494 132.782 57.425C128.205 52.2005 120.783 52.2005 116.206 57.425C111.629 62.6494 111.629 71.1199 116.206 76.3443C120.783 81.5688 128.205 81.5688 132.782 76.3443Z" fill="white" stroke="#263238" stroke-linecap="round" stroke-linejoin="round"/>
<path d="M124.624 76.2919V74.5304C123.485 74.4816 122.634 74.0653 122.07 73.2814C121.507 72.4975 121.202 71.3293 121.156 69.7768L123.497 69.3193C123.508 69.8507 123.565 70.3797 123.67 70.8977C123.732 71.252 123.879 71.5798 124.095 71.8448C124.191 71.9508 124.306 72.0335 124.431 72.0877C124.557 72.142 124.69 72.1667 124.824 72.1605C124.961 72.1772 125.099 72.1506 125.224 72.0836C125.348 72.0166 125.454 71.9118 125.53 71.7807C125.658 71.5131 125.723 71.2119 125.718 70.9069C125.733 70.3343 125.593 69.7706 125.317 69.2918C125.013 68.8006 124.653 68.3575 124.247 67.9741L122.84 66.6016C122.531 66.2769 122.242 65.9284 121.974 65.5584C121.717 65.1954 121.513 64.7876 121.369 64.3505C121.211 63.8331 121.135 63.2878 121.144 62.7401C121.118 62.2329 121.183 61.725 121.336 61.2479C121.489 60.7709 121.727 60.335 122.034 59.9675C122.683 59.2756 123.528 58.8743 124.415 58.8374V57.1537H125.217V58.8374C125.732 58.8488 126.236 59.006 126.684 59.2949C127.048 59.5432 127.349 59.8947 127.558 60.3152C127.758 60.7369 127.903 61.1902 127.987 61.6603C128.073 62.1248 128.129 62.5957 128.155 63.0695L125.782 63.4675C125.775 63.052 125.742 62.6376 125.682 62.2276C125.645 61.9235 125.543 61.6345 125.385 61.3858C125.303 61.2807 125.199 61.1999 125.083 61.1505C124.967 61.1011 124.843 61.0845 124.72 61.1021C124.582 61.1003 124.445 61.1373 124.322 61.2099C124.199 61.2825 124.093 61.3884 124.015 61.5185C123.851 61.7866 123.767 62.1071 123.774 62.4335C123.755 62.9337 123.883 63.4267 124.139 63.8335C124.393 64.1967 124.67 64.5378 124.969 64.8538L126.348 66.2264C126.713 66.605 127.05 67.0166 127.358 67.4571C127.668 67.9022 127.919 68.397 128.103 68.9258C128.299 69.5096 128.396 70.1307 128.388 70.7559C128.395 71.3893 128.273 72.016 128.031 72.586C127.799 73.1291 127.443 73.5906 127.001 73.9219C126.527 74.2746 125.982 74.484 125.418 74.5304V76.3102L124.624 76.2919Z" fill="white" stroke="#263238" stroke-linecap="round" stroke-linejoin="round"/>
<path d="M89.7939 64.9361L90.2309 88.0502L90.0545 104.484L92.4115 104.086C92.4115 104.086 94.945 88.645 94.945 87.7482C94.945 86.8515 96.3399 75.3951 96.3399 75.3951L98.9575 90.2372L100.316 104.48L102.673 104.082C102.673 104.082 102.974 88.6404 102.974 85.8541C102.974 83.0678 102.854 65.1282 102.854 65.1282L95.4661 62.9413L89.7939 64.9361Z" fill="#263238" stroke="#263238" stroke-linecap="round" stroke-linejoin="round"/>
<path d="M92.4117 104.086C92.4117 104.086 95.9032 106.676 95.3821 107.289C94.861 107.902 91.9748 107.289 91.1891 107.188C90.8262 107.172 90.47 107.071 90.1429 106.891L90.0547 104.498L92.4117 104.086Z" fill="white" stroke="#263238" stroke-linecap="round" stroke-linejoin="round"/>
<path d="M102.673 104.086C102.673 104.086 106.165 106.676 105.64 107.289C105.115 107.902 102.237 107.289 101.451 107.188C101.088 107.172 100.732 107.071 100.405 106.891L100.316 104.498L102.673 104.086Z" fill="white" stroke="#263238" stroke-linecap="round" stroke-linejoin="round"/>
<path d="M120.668 50.6431L123.815 49.8149C123.815 49.8149 126.837 51.645 127.09 51.9058C127.342 52.1666 126.837 52.1941 126.288 52.1941C125.427 52.0626 124.574 51.8686 123.735 51.613C123.735 51.613 125.053 52.0705 124.841 52.2947C124.722 52.4003 124.585 52.4763 124.438 52.5181C124.292 52.5598 124.14 52.5663 123.991 52.5372C123.779 52.4869 122.969 52.3405 122.969 52.3405C122.969 52.3405 121.566 52.2947 121.141 52.1941L120.716 52.098L120.668 50.6431Z" fill="white" stroke="#263238" stroke-linecap="round" stroke-linejoin="round"/>
<path d="M100.312 36.4003C100.312 36.4003 93.1529 40.9756 92.2309 42.2887C91.3089 43.6018 91.0003 50.1947 90.3829 54.8523C89.9792 58.3194 89.7476 61.8098 89.6895 65.3067C89.6895 65.3067 94.8485 66.0982 97.7066 66.0113C99.4505 65.9502 101.182 65.6554 102.866 65.1329C102.866 65.1329 103.868 59.2445 104.096 58.3661C104.325 57.4876 106.177 46.928 106.177 46.928L111.873 52.1117H120.668V50.6248C120.668 50.6248 113.709 48.7947 113.633 48.5064C113.556 48.2182 107.704 38.6651 105.932 37.5258C104.16 36.3866 101.547 35.3435 100.312 36.4003Z" fill="#CDCA62" stroke="#263238" stroke-linecap="round" stroke-linejoin="round"/>
<path d="M101.006 33.8519L99.6988 37.4526C99.6988 37.4526 99.0814 37.6311 99.2378 39.0357C99.3941 40.4403 100.929 44.3933 101.467 44.3064C102.004 44.2194 103.699 38.9716 103.699 38.9716L101.006 33.8519Z" fill="white" stroke="#263238" stroke-linecap="round" stroke-linejoin="round"/>
<path d="M101.743 37.8278L102.288 42.6272L103.315 40.2664L101.743 37.8278Z" fill="#263238" stroke="#263238" stroke-linecap="round" stroke-linejoin="round"/>
<path d="M108.321 31.7427C108.575 31.9863 108.888 32.1342 109.219 32.1662C109.549 32.1981 109.879 32.1125 110.165 31.9211C111.324 31.3035 111.861 29.9858 110.859 28.9335C109.857 27.8812 109.32 29.0204 109.011 27.6158C108.702 26.2112 107.472 25.2459 106.413 25.5936C105.355 25.9413 105.724 26.3851 104.954 26.6459C104.185 26.9067 103.182 26.1197 102.18 27.2635C101.178 28.4073 101.026 31.1296 100.797 32.3604C100.569 33.5911 101.567 33.9388 102.401 33.8519C103.235 33.765 103.94 31.7427 104.634 31.1067C105.327 30.4708 108.321 31.7427 108.321 31.7427Z" fill="#263238" stroke="#263238" stroke-linecap="round" stroke-linejoin="round"/>
<path d="M100.853 34.2042C100.853 34.2042 100.93 36.135 101.254 36.7526C101.579 37.3703 102.858 40.2664 103.331 40.2664C103.824 40.3056 104.319 40.2452 104.794 40.088C105.102 39.9141 106.333 38.0703 107.103 36.4873C107.872 34.9042 108.337 31.7427 108.337 31.7427C108.337 31.7427 104.641 29.1074 104.409 29.6336C104.176 30.1597 104.257 30.9512 103.872 31.0382C103.487 31.1251 102.641 31.2166 102.641 31.2166C102.641 31.2166 102.87 32.4473 102.561 32.7081C102.252 32.9689 101.483 32.4473 101.483 32.4473C101.483 32.4473 100.545 32.6212 100.853 34.2042Z" fill="white" stroke="#263238" stroke-linecap="round" stroke-linejoin="round"/>
<path d="M105.135 34.5153C105.067 34.8493 104.878 35.0872 104.734 35.046C104.589 35.0049 104.493 34.6938 104.561 34.3598C104.63 34.0258 104.818 33.7833 104.982 33.829C105.147 33.8748 105.211 34.1813 105.135 34.5153Z" fill="#263238"/>
<path d="M107.147 35.1558C107.075 35.4944 106.89 35.7277 106.726 35.6866C106.562 35.6454 106.486 35.3343 106.554 35.0003C106.622 34.6663 106.81 34.4238 106.955 34.4695C107.099 34.5153 107.215 34.8218 107.147 35.1558Z" fill="#263238"/>
<path d="M104.293 33.2572C104.293 33.2572 104.598 32.9781 105.496 33.2572" stroke="#263238" stroke-linecap="round" stroke-linejoin="round"/>
<path d="M106.846 33.8839C107.007 33.9048 107.162 33.9651 107.3 34.0607C107.438 34.1562 107.557 34.2848 107.648 34.4375" stroke="#263238" stroke-linecap="round" stroke-linejoin="round"/>
<path d="M106.177 35.1329L105.872 37.0042L104.902 36.867" stroke="#263238" stroke-linecap="round" stroke-linejoin="round"/>
<path d="M104.597 37.9742C104.597 37.9742 103.683 37.9742 103.395 36.5193" stroke="#263238" stroke-linecap="round" stroke-linejoin="round"/>
<path d="M101.852 33.2388C101.852 33.2388 101.699 31.2166 101.006 31.2166C100.312 31.2166 99.6989 33.0466 100.084 33.8519C100.469 34.6571 101.467 34.9042 101.467 34.9042" fill="white"/>
<path d="M101.852 33.2388C101.852 33.2388 101.699 31.2166 101.006 31.2166C100.312 31.2166 99.6989 33.0466 100.084 33.8519C100.469 34.6571 101.467 34.9042 101.467 34.9042" stroke="#263238" stroke-linecap="round" stroke-linejoin="round"/>
<path d="M95.7103 43.8625L97.0452 56.4901L108.269 60.8686L108.446 62.351L93.4375 60.0176L91.0323 45.8069C90.7397 44.0821 91.5174 42.2108 92.5957 41.1631C93.674 40.1153 95.3656 40.0604 95.3656 40.0604" fill="#CDCA62"/>
<path d="M95.7103 43.8625L97.0452 56.4901L108.269 60.8686L108.446 62.351L93.4375 60.0176L91.0323 45.8069C90.7397 44.0821 91.5174 42.2108 92.5957 41.1631C93.674 40.1153 95.3656 40.0604 95.3656 40.0604" stroke="#263238" stroke-linecap="round" stroke-linejoin="round"/>
<path d="M108.253 60.8687C108.253 60.8687 110.041 60.2968 110.258 60.2465C110.474 60.1961 111.689 61.2713 111.929 61.3079C112.17 61.3445 112.579 61.4315 112.559 61.7929C112.539 62.1543 112.434 62.4472 111.849 62.2184C111.516 62.0946 111.192 61.9416 110.879 61.7609C111.429 62.4032 112.013 63.0067 112.627 63.5681C112.848 63.7265 113.05 63.9172 113.228 64.1354C113.255 64.1685 113.275 64.2085 113.286 64.2521C113.297 64.2957 113.299 64.3417 113.292 64.3863C113.284 64.4309 113.268 64.4728 113.244 64.5087C113.219 64.5447 113.188 64.5735 113.152 64.5929C112.672 64.8534 112.154 65.0086 111.625 65.0505C110.767 65.0505 108.418 62.3556 108.418 62.3556L108.253 60.8687Z" fill="white" stroke="#263238" stroke-linecap="round" stroke-linejoin="round"/>
<path d="M178.247 98.3399C178.247 98.3399 189.719 90.9555 191.391 91.6692C193.062 92.3829 189.928 106.909 189.511 107.861C189.094 108.813 178.247 98.3399 178.247 98.3399Z" fill="#CDCA62" stroke="#263238" stroke-linecap="round" stroke-linejoin="round"/>
<path d="M190.762 93.5771C190.762 93.5771 190.265 94.4602 189.631 95.7321C188.525 97.9557 187.01 101.369 187.01 103.341C187.01 106.434 188.677 106.196 189.094 103.798L190.553 96.8896" stroke="#263238" stroke-linecap="round" stroke-linejoin="round"/>
<path d="M94.3314 137.083C97.4773 137.083 100.028 133.294 100.028 128.619C100.028 123.944 97.4773 120.155 94.3314 120.155C91.1855 120.155 88.6353 123.944 88.6353 128.619C88.6353 133.294 91.1855 137.083 94.3314 137.083Z" fill="#CDCA62" stroke="#263238" stroke-linecap="round" stroke-linejoin="round"/>
<path d="M145.962 189.355C175.937 189.355 200.238 165.874 200.238 136.909C200.238 107.944 175.937 84.4631 145.962 84.4631C115.986 84.4631 91.6855 107.944 91.6855 136.909C91.6855 165.874 115.986 189.355 145.962 189.355Z" fill="#CDCA62" stroke="#263238" stroke-linecap="round" stroke-linejoin="round"/>
<path d="M181.213 173.063C171.993 181.445 159.607 186.583 145.962 186.583C121.61 186.583 101.21 170.217 95.9028 148.247" fill="#CDCA62"/>
<path d="M181.213 173.063C171.993 181.445 159.607 186.583 145.962 186.583C121.61 186.583 101.21 170.217 95.9028 148.247" stroke="#263238" stroke-width="2" stroke-linecap="round" stroke-linejoin="round"/>
<path d="M94.5881 138.556C94.5681 138.012 94.5601 137.463 94.5601 136.909C94.5614 130.92 95.662 124.997 97.791 119.523" fill="#CDCA62"/>
<path d="M94.5881 138.556C94.5681 138.012 94.5601 137.463 94.5601 136.909C94.5614 130.92 95.662 124.997 97.791 119.523" stroke="#263238" stroke-width="2" stroke-linecap="round" stroke-linejoin="round"/>
<path d="M129.663 90.2372C140.344 86.7906 151.652 86.7906 162.333 90.2372" stroke="#263238" stroke-width="5" stroke-linecap="round" stroke-linejoin="round"/>
<path d="M197.232 120.722C197.232 120.722 204.118 118.1 205.161 119.532C206.203 120.965 206.203 137.628 205.369 140.725C204.535 143.822 198.899 143.104 194.947 139.773C193.814 138.865 192.897 137.649 192.278 136.236C191.659 134.822 191.359 133.255 191.403 131.675" fill="#CDCA62"/>
<path d="M197.232 120.722C197.232 120.722 204.118 118.1 205.161 119.532C206.203 120.965 206.203 137.628 205.369 140.725C204.535 143.822 198.899 143.104 194.947 139.773C193.814 138.865 192.897 137.649 192.278 136.236C191.659 134.822 191.359 133.255 191.403 131.675" stroke="#263238" stroke-linecap="round" stroke-linejoin="round"/>
<path d="M193.059 130.961L188.886 131.675" stroke="#263238" stroke-linecap="round" stroke-linejoin="round"/>
<path d="M192.016 136.2C192.016 136.2 190.974 144.536 192.224 144.774C193.475 145.012 195.564 140.725 195.564 140.725C195.564 140.725 192.641 136.914 192.016 136.2Z" fill="#263238" stroke="#263238" stroke-linecap="round" stroke-linejoin="round"/>
<path d="M188.22 116.677C188.621 118.393 188.377 119.949 187.707 120.145C187.038 120.342 186.184 119.107 185.795 117.4C185.406 115.694 185.639 114.129 186.308 113.932C186.978 113.736 187.835 114.957 188.22 116.677Z" fill="#263238"/>
<path d="M166.297 93.6C166.297 93.6 179.425 78.616 181.987 81.5396C184.548 84.4632 183.59 97.2556 183.59 99.0857V104.201" fill="#CDCA62"/>
<path d="M166.297 93.6C166.297 93.6 179.425 78.616 181.987 81.5396C184.548 84.4632 183.59 97.2556 183.59 99.0857V104.201" stroke="#263238" stroke-linecap="round" stroke-linejoin="round"/>
<path d="M182.42 84.7652C182.42 84.7652 182.628 80.954 181.165 83.3377C179.702 85.7214 175.533 102.147 176.784 104.054C178.034 105.962 181.594 105.006 182.42 101.433C183.245 97.8596 182.628 87.6202 182.628 87.6202" stroke="#263238" stroke-linecap="round" stroke-linejoin="round"/>
<path d="M110.558 171.672L117.741 193.83H125.67L129.214 182.396" fill="#CDCA62"/>
<path d="M110.558 171.672L117.741 193.83H125.67L129.214 182.396" stroke="#263238" stroke-linecap="round" stroke-linejoin="round"/>
<path d="M176.784 174.541L169.901 193.83H161.972L158.424 182.396" fill="#CDCA62"/>
<path d="M176.784 174.541L169.901 193.83H161.972L158.424 182.396" stroke="#263238" stroke-linecap="round" stroke-linejoin="round"/>
<path d="M143.312 162.887V158.262C140.322 158.128 138.087 157.034 136.606 154.981C135.126 152.929 134.324 149.863 134.201 145.785L140.346 144.591C140.372 145.989 140.526 147.379 140.803 148.741C140.965 149.67 141.349 150.53 141.913 151.225C142.168 151.502 142.469 151.717 142.798 151.859C143.127 152 143.478 152.065 143.83 152.049C144.727 152.049 145.345 151.719 145.681 151.051C146.024 150.353 146.197 149.563 146.183 148.764C146.228 147.261 145.87 145.778 145.156 144.513C144.358 143.226 143.415 142.064 142.35 141.059L138.646 137.426C137.838 136.57 137.082 135.653 136.382 134.681C135.695 133.723 135.153 132.64 134.778 131.478C134.362 130.121 134.162 128.689 134.189 127.251C134.189 124.14 134.967 121.713 136.522 119.972C138.077 118.23 140.16 117.243 142.771 117.011V112.633H144.896V117.057C146.249 117.088 147.573 117.507 148.748 118.274C149.7 118.931 150.488 119.855 151.037 120.96C151.567 122.066 151.948 123.256 152.167 124.492C152.389 125.711 152.531 126.946 152.592 128.189L146.363 129.232C146.345 128.14 146.258 127.052 146.102 125.974C146.004 125.172 145.728 124.411 145.301 123.764C145.085 123.489 144.814 123.277 144.511 123.148C144.208 123.018 143.882 122.974 143.561 123.019C143.197 123.013 142.838 123.11 142.515 123.3C142.192 123.491 141.915 123.77 141.709 124.112C141.29 124.797 141.069 125.615 141.076 126.45C141.023 127.759 141.362 129.05 142.038 130.11C142.701 131.069 143.428 131.967 144.214 132.796L147.822 136.374C148.793 137.374 149.691 138.462 150.508 139.627C151.325 140.795 151.985 142.095 152.468 143.484C152.982 145.027 153.231 146.669 153.202 148.32C153.221 149.98 152.899 151.622 152.264 153.115C151.656 154.539 150.724 155.751 149.566 156.624C148.318 157.545 146.887 158.091 145.405 158.211V162.887H143.312Z" fill="#263238"/>
<path opacity="0.35" d="M158.721 136.31C165.929 136.31 171.773 129.851 171.773 121.884C171.773 113.917 165.929 107.458 158.721 107.458C151.512 107.458 145.669 113.917 145.669 121.884C145.669 129.851 151.512 136.31 158.721 136.31Z" fill="white"/>
<path d="M1 193.83H290.15" stroke="#263238" stroke-linecap="round" stroke-linejoin="round"/>
</svg>
