<svg width="290" height="206" viewBox="0 0 290 206" fill="none" xmlns="http://www.w3.org/2000/svg">
<path d="M65.9549 156.033L65.2431 194.195L2.85788 194.338L2.76758 155.661L65.9549 156.033Z" fill="#EBEBEB"/>
<path d="M29.2036 194.231C29.1186 194.231 29.2036 185.71 29.4107 175.201C29.6179 164.692 29.8303 156.176 29.91 156.181C29.9897 156.186 29.91 164.697 29.7029 175.206C29.4957 185.715 29.2832 194.231 29.2036 194.231Z" fill="#E0E0E0"/>
<path d="M2.85791 194.338C2.93356 194.198 3.01873 194.064 3.11287 193.935L3.88305 192.818L6.7779 188.739L16.4079 175.303C20.1686 170.066 23.5521 165.314 25.9689 161.846C27.1799 160.118 28.136 158.7 28.7947 157.726C29.1081 157.252 29.3577 156.87 29.5436 156.594C29.6249 156.457 29.7191 156.327 29.8251 156.207C29.757 156.348 29.6807 156.486 29.5967 156.62L28.8903 157.782C28.2635 158.802 27.3287 160.209 26.1442 161.958C23.7752 165.451 20.4182 170.224 16.6523 175.466C12.8863 180.708 9.45497 185.42 6.95319 188.826L3.98398 192.859L3.16598 193.945C3.07548 194.085 2.9724 194.216 2.85791 194.338Z" fill="#E0E0E0"/>
<path d="M29.2033 194.231C29.0956 194.114 28.9995 193.988 28.9165 193.853L28.141 192.747L25.3205 188.668L15.9614 175.247C12.2911 170.01 8.99784 165.252 6.66071 161.78C5.49746 160.041 4.53605 158.629 3.92522 157.65L3.19752 156.513C3.10602 156.385 3.02605 156.25 2.9585 156.11C3.06517 156.226 3.16114 156.35 3.24533 156.482L4.02082 157.589C4.70072 158.573 5.65681 159.965 6.836 161.668L16.2004 175.089C19.8708 180.325 23.1587 185.083 25.4958 188.561C26.6644 190.294 27.6205 191.707 28.2366 192.691L28.9643 193.823C29.0541 193.953 29.134 194.09 29.2033 194.231Z" fill="#E0E0E0"/>
<path d="M35.644 189.899L45.6602 190.072L45.697 188.104L35.6809 187.931L35.644 189.899Z" fill="#E0E0E0"/>
<path d="M36.1509 186.342C37.7782 186.191 39.4137 186.134 41.0482 186.174C42.6833 186.119 44.3204 186.156 45.9509 186.286C44.3233 186.435 42.688 186.491 41.0535 186.455C39.4184 186.51 37.7814 186.473 36.1509 186.342Z" fill="#E0E0E0"/>
<path d="M49.4672 155.814L49.191 170.545L47.0292 168.898L44.2246 170.459L44.5008 155.727L49.4672 155.814Z" fill="#E0E0E0"/>
<path d="M58.4705 127.126L57.9287 156.253L10.3205 156.36L10.2461 126.841L58.4705 127.126Z" fill="#F5F5F5"/>
<path d="M30.4253 156.278C30.3616 156.278 30.4253 149.777 30.5847 141.756C30.744 133.735 30.9034 127.239 30.9671 127.239C31.0308 127.239 30.9671 133.74 30.8077 141.761C30.6484 149.782 30.4837 156.278 30.4253 156.278Z" fill="#E0E0E0"/>
<path d="M10.3203 156.36C10.3757 156.253 10.4396 156.151 10.5115 156.054C10.6603 155.843 10.8568 155.557 11.1011 155.197C11.6323 154.447 12.3865 153.387 13.3108 152.087C15.2017 149.45 17.7938 145.84 20.6621 141.853C23.5304 137.865 26.1118 134.204 27.955 131.583C28.8739 130.257 29.6069 129.181 30.1115 128.437L30.6798 127.57C30.7454 127.468 30.8164 127.369 30.8923 127.274C30.8423 127.385 30.7837 127.493 30.717 127.595L30.1859 128.478C29.7078 129.237 28.9961 130.334 28.0931 131.665C26.2818 134.331 23.7216 137.977 20.848 141.975C17.9744 145.973 15.3504 149.568 13.4436 152.173L11.1808 155.233C10.9152 155.579 10.7081 155.86 10.554 156.064C10.4852 156.169 10.407 156.268 10.3203 156.36Z" fill="#E0E0E0"/>
<path d="M30.4252 156.278C30.341 156.19 30.2663 156.095 30.2021 155.992L29.6125 155.146C29.0813 154.396 28.3642 153.336 27.4613 152.036L20.3012 141.791C17.5019 137.799 14.9895 134.143 13.2048 131.512C12.3178 130.186 11.6113 129.11 11.1173 128.36L10.5862 127.493C10.464 127.295 10.4003 127.188 10.4056 127.188C10.4884 127.275 10.5614 127.371 10.6234 127.473L11.2183 128.314C11.7494 129.069 12.4665 130.125 13.3429 131.43L20.4924 141.674C23.2916 145.667 25.804 149.297 27.5834 151.949C28.4758 153.275 29.1769 154.356 29.6762 155.105L30.2339 155.967C30.3052 156.066 30.3691 156.17 30.4252 156.278Z" fill="#E0E0E0"/>
<path d="M35.693 152.763L43.3364 152.909L43.3678 151.405L35.7243 151.258L35.693 152.763Z" fill="#E0E0E0"/>
<path d="M35.7051 150.256C36.9408 150.144 38.1823 150.102 39.4232 150.128C40.6633 150.089 41.9047 150.118 43.1414 150.215C41.9058 150.33 40.6642 150.372 39.4232 150.343C38.1832 150.388 36.9414 150.359 35.7051 150.256Z" fill="#EBEBEB"/>
<path d="M48.8459 126.963L48.6334 138.207L46.9868 136.947L44.8462 138.14L45.0533 126.897L48.8459 126.963Z" fill="#E0E0E0"/>
<path d="M63.6333 191.584C63.0754 189.997 62.0309 188.608 60.6367 187.6C59.2424 186.591 57.5635 186.011 55.8198 185.935L54.3591 108.759H61.3918V109.912H62.7144V107.148H51.7883C51.7883 107.148 53.0897 164.085 54.0351 186.011C53.5652 186.084 53.1017 186.192 52.6488 186.332C50.9018 186.897 49.3877 187.981 48.3265 189.428C47.2653 190.875 46.7122 192.609 46.7475 194.379L21.8359 194.063L22.5477 197.204L47.1034 196.556C47.1353 196.663 47.1619 196.77 47.199 196.882C47.5422 197.943 48.1028 198.926 48.8478 199.775C49.5928 200.625 50.5071 201.322 51.5371 201.827C52.567 202.332 53.6917 202.634 54.8451 202.716C55.9985 202.797 57.1572 202.657 58.2531 202.302C59.349 201.947 60.3599 201.386 61.2265 200.651C62.093 199.915 62.7977 199.021 63.299 198.021C63.8003 197.02 64.0881 195.934 64.1455 194.825C64.2029 193.716 64.0287 192.607 63.6333 191.564V191.584Z" fill="#E0E0E0"/>
<path d="M26.6113 201.798H27.9286L30.4676 197.015L28.3695 197.071L26.6113 201.798Z" fill="#E0E0E0"/>
<path d="M230.897 0H205.954V6.61867H230.897V0Z" fill="#EBEBEB"/>
<path d="M252.223 140.104H227.28V146.722H252.223V140.104Z" fill="#EBEBEB"/>
<path d="M224.566 6.61353H199.622V13.2322H224.566V6.61353Z" fill="#F5F5F5"/>
<path d="M236.347 146.931H218.425V153.55H236.347V146.931Z" fill="#F5F5F5"/>
<path d="M131.112 22.0231H77.3799V127.509H131.112V22.0231Z" fill="#EBEBEB"/>
<path d="M104.225 22.0231C104.225 22.0231 93.2088 69.8733 77.3589 73.1418C77.3589 73.1418 83.7329 106.709 84.3437 127.509H77.3801V22.0231H104.225Z" fill="#E0E0E0"/>
<path d="M104.427 22.0231C104.427 22.0231 115.443 69.8733 131.314 73.1418C131.314 73.1418 124.94 106.709 124.335 127.509H131.314V22.0231H104.427Z" fill="#E0E0E0"/>
<path d="M105.229 21.8192H103.269V127.509H105.229V21.8192Z" fill="#FAFAFA"/>
<path d="M90.2924 21.8192H89.8091V127.509H90.2924V21.8192Z" fill="#FAFAFA"/>
<path d="M119.3 21.8192H118.816V127.509H119.3V21.8192Z" fill="#FAFAFA"/>
<path d="M131.112 48.0287V48.4519L77.3799 48.661V48.2378L131.112 48.0287Z" fill="#FAFAFA"/>
<path d="M131.112 100.509V100.922L77.3799 101.131V100.718L131.112 100.509Z" fill="#FAFAFA"/>
<path d="M131.112 73.7079H77.3799V75.4671H131.112V73.7079Z" fill="#FAFAFA"/>
<path d="M131.909 128.274H76.6045V21.2583H131.909V128.274ZM78.1767 126.744H130.316V22.788H78.198L78.1767 126.744Z" fill="#F5F5F5"/>
<path d="M288.353 22.0231H234.621V127.509H288.353V22.0231Z" fill="#EBEBEB"/>
<path d="M261.487 22.0231C261.487 22.0231 250.471 69.8733 234.621 73.1418C234.621 73.1418 240.995 106.709 241.6 127.509H234.621V22.0231H261.487Z" fill="#E0E0E0"/>
<path d="M261.667 22.0231C261.667 22.0231 272.684 69.8733 288.539 73.1418C288.539 73.1418 282.165 106.709 281.554 127.509H288.539V22.0231H261.667Z" fill="#E0E0E0"/>
<path d="M262.464 21.8192H260.504V127.509H262.464V21.8192Z" fill="#FAFAFA"/>
<path d="M247.528 21.8192H247.044V127.509H247.528V21.8192Z" fill="#FAFAFA"/>
<path d="M276.535 21.8192H276.051V127.509H276.535V21.8192Z" fill="#FAFAFA"/>
<path d="M288.353 48.0287V48.4519L234.621 48.661V48.2378L288.353 48.0287Z" fill="#FAFAFA"/>
<path d="M288.353 100.509V100.922L234.621 101.131V100.718L288.353 100.509Z" fill="#FAFAFA"/>
<path d="M288.353 73.7079H234.621V75.4671H288.353V73.7079Z" fill="#FAFAFA"/>
<path d="M289.15 128.274H233.829V21.2583H289.15V128.274ZM235.417 126.744H287.556V22.788H235.423L235.417 126.744Z" fill="#F5F5F5"/>
<path d="M121.27 186.684C119.348 185.818 117.186 185.566 115.104 185.965C113.983 186.144 112.814 186.475 112.055 187.271C111.295 188.066 111.146 189.499 112.023 190.192C112.586 190.561 113.267 190.727 113.946 190.661C115.576 190.661 117.382 190.366 118.689 191.309C119.433 191.85 119.926 192.742 120.814 193.007C121.259 193.103 121.725 193.059 122.142 192.88C122.559 192.702 122.905 192.4 123.129 192.018C123.55 191.231 123.643 190.319 123.39 189.468C123.283 188.879 123.036 188.322 122.668 187.839C122.301 187.356 121.822 186.961 121.27 186.684Z" fill="#EBEBEB"/>
<path d="M125.573 178.714C124.425 180.29 122.195 179.77 121.159 178.806C120.123 177.842 119.687 176.455 119.289 175.13C118.381 172.07 117.462 168.914 118.142 165.824C118.299 164.88 118.727 163.997 119.379 163.274C119.707 162.922 120.124 162.659 120.589 162.51C121.055 162.36 121.554 162.33 122.035 162.423C123.156 162.708 123.857 163.764 124.362 164.773C125.852 167.742 126.633 170.993 126.646 174.288C126.646 175.818 126.465 177.429 125.583 178.694" fill="#EBEBEB"/>
<path d="M128.723 180.973C128.134 180.234 127.742 179.367 127.581 178.449C127.42 177.531 127.494 176.59 127.798 175.706C128.426 173.937 129.551 172.37 131.049 171.178C132.754 169.723 134.739 168.602 136.892 167.879C137.723 167.559 138.616 167.415 139.511 167.455C139.957 167.48 140.39 167.609 140.772 167.831C141.155 168.053 141.475 168.362 141.704 168.73C142.32 169.852 141.731 171.213 141.093 172.3C139.977 174.265 138.698 176.14 137.269 177.909C136.127 179.326 134.815 180.723 133.068 181.366C131.32 182.008 129.503 181.932 128.579 180.769" fill="#EBEBEB"/>
<path d="M125.652 202.456C125.587 202.223 125.552 201.983 125.546 201.742C125.493 201.232 125.429 200.564 125.35 199.789C125.27 199.014 125.127 197.989 124.893 196.923C124.63 195.773 124.275 194.645 123.831 193.548C123.385 192.451 122.778 191.421 122.03 190.488C121.424 189.73 120.649 189.112 119.762 188.678C119.159 188.389 118.511 188.196 117.844 188.107C117.595 188.098 117.347 188.062 117.106 188C117.357 187.975 117.609 187.975 117.86 188C118.551 188.052 119.226 188.225 119.852 188.51C120.79 188.932 121.612 189.559 122.253 190.34C123.03 191.284 123.657 192.334 124.112 193.456C124.568 194.57 124.923 195.72 125.174 196.893C125.366 197.85 125.499 198.817 125.573 199.789C125.636 200.62 125.658 201.288 125.668 201.752C125.687 201.987 125.681 202.222 125.652 202.456Z" fill="#E0E0E0"/>
<path d="M125.509 200.951C125.496 200.841 125.496 200.73 125.509 200.62C125.509 200.37 125.509 200.059 125.509 199.672C125.509 198.851 125.509 197.632 125.466 196.184C125.387 193.242 125.126 189.183 124.617 184.716C124.107 180.249 123.421 176.231 122.8 173.35C122.651 172.626 122.508 171.973 122.364 171.407C122.221 170.841 122.12 170.341 122.014 169.944C121.908 169.546 121.844 169.265 121.78 169.021C121.747 168.915 121.727 168.805 121.722 168.694C121.771 168.794 121.81 168.898 121.839 169.005C121.918 169.245 122.009 169.546 122.125 169.918C122.242 170.29 122.386 170.8 122.534 171.366C122.683 171.932 122.853 172.585 123.012 173.304C123.857 177.061 124.494 180.858 124.919 184.68C125.45 189.157 125.663 193.231 125.684 196.184C125.684 197.657 125.684 198.851 125.626 199.677C125.626 200.059 125.583 200.375 125.567 200.625C125.563 200.736 125.543 200.845 125.509 200.951Z" fill="#E0E0E0"/>
<path d="M125.472 193.094C125.445 192.764 125.445 192.434 125.472 192.104C125.509 191.467 125.599 190.544 125.785 189.417C126.013 188.099 126.316 186.793 126.693 185.506C127.147 183.926 127.717 182.379 128.398 180.876C129.591 178.109 131.299 175.575 133.439 173.396C133.807 173.022 134.199 172.671 134.613 172.345C134.794 172.198 134.953 172.05 135.118 171.937L135.574 171.631C135.849 171.437 136.14 171.267 136.446 171.122C135.441 171.875 134.489 172.689 133.593 173.559C131.536 175.759 129.886 178.281 128.712 181.014C128.039 182.506 127.467 184.039 127.001 185.603C126.612 186.877 126.289 188.169 126.035 189.473C125.817 190.59 125.695 191.513 125.62 192.135C125.599 192.458 125.549 192.779 125.472 193.094Z" fill="#E0E0E0"/>
<path d="M280.842 202.838C280.842 202.91 220.789 202.971 146.723 202.971C72.6578 202.971 12.5938 202.91 12.5938 202.838C12.5938 202.767 72.6153 202.706 146.723 202.706C220.831 202.706 280.842 202.767 280.842 202.838Z" fill="#263238"/>
<path d="M243.284 186.19C235.561 181.335 233.601 172.045 233.686 163.651C233.686 162.249 233.505 160.781 234.174 159.536C234.844 158.292 236.464 157.415 237.802 157.971C238.912 158.435 239.396 159.633 240.06 160.623C240.918 161.943 242.148 163.004 243.608 163.682C244.559 164.126 245.733 164.381 246.646 163.876C247.905 163.177 248.011 161.505 247.969 160.113C247.884 157.519 247.801 154.925 247.719 152.331C247.593 150.941 247.706 149.541 248.054 148.186C248.479 146.855 249.456 145.601 250.848 145.198C252.239 144.795 253.982 145.519 254.311 146.875C254.381 147.451 254.411 148.03 254.401 148.609C254.4 148.898 254.488 149.182 254.654 149.423C254.821 149.665 255.058 149.853 255.336 149.965C255.931 150.118 256.505 149.71 256.93 149.292C258.411 147.849 259.394 146.014 260.313 144.193C261.232 142.373 262.114 140.501 263.452 138.941C264.791 137.381 266.639 136.116 268.764 135.953C270.889 135.79 273.141 136.973 273.72 138.916C274.299 140.858 273.146 142.888 271.871 144.525C269.976 146.922 267.731 149.044 265.205 150.827C264.71 151.098 264.319 151.515 264.09 152.015C263.797 152.953 264.748 153.856 265.72 154.136C266.825 154.458 268.01 154.32 269.162 154.422C270.315 154.524 271.563 154.973 272.025 155.993C272.663 157.4 271.446 158.919 270.235 159.929C267.801 161.943 265.027 163.544 262.034 164.666C260.972 165.064 259.83 165.421 258.98 166.16C258.13 166.9 257.631 168.164 258.183 169.133C258.735 170.102 260.095 170.382 261.221 170.153C262.347 169.923 263.346 169.322 264.408 168.914C266.405 168.144 269.019 168.215 270.352 169.842C270.762 170.399 271.03 171.041 271.133 171.716C271.236 172.391 271.173 173.08 270.947 173.727C270.491 175.017 269.769 176.205 268.822 177.22C265.699 180.942 261.607 183.808 256.961 185.527C252.314 187.174 247.985 187.694 243.284 186.184" fill="#CFCC53"/>
<path d="M271.542 137.059C271.542 137.059 271.5 137.11 271.404 137.197L270.979 137.574C270.602 137.906 270.044 138.395 269.348 139.043C267.374 140.864 265.547 142.826 263.883 144.912C262.82 146.228 261.721 147.717 260.573 149.333C259.426 150.949 258.21 152.688 257.009 154.56C255.735 156.508 254.576 158.524 253.536 160.597C253.004 161.673 252.521 162.8 252.032 163.947C251.544 165.094 251.055 166.257 250.561 167.435C248.664 171.849 247.029 176.362 245.664 180.953C244.568 184.706 243.846 188.551 243.507 192.436C243.289 195.055 243.311 197.688 243.571 200.304C243.672 201.227 243.767 201.946 243.847 202.43C243.879 202.661 243.906 202.845 243.927 202.981C243.935 203.044 243.935 203.107 243.927 203.17C243.904 203.11 243.888 203.049 243.879 202.986C243.852 202.848 243.815 202.67 243.773 202.435C243.672 201.956 243.56 201.237 243.443 200.314C243.141 197.693 243.092 195.051 243.295 192.421C243.615 188.521 244.327 184.66 245.419 180.892C246.774 176.287 248.406 171.761 250.306 167.338C250.8 166.16 251.294 164.998 251.777 163.845C252.261 162.693 252.744 161.566 253.291 160.485C254.341 158.407 255.51 156.386 256.792 154.432C258.003 152.561 259.224 150.827 260.382 149.211C261.54 147.594 262.65 146.11 263.723 144.8C265.408 142.719 267.262 140.77 269.269 138.972C269.98 138.334 270.549 137.855 270.937 137.539L271.383 137.177L271.542 137.059Z" fill="#263238"/>
<path d="M253.382 160.464C253.308 160.273 253.255 160.075 253.222 159.873C253.137 159.49 253.031 158.93 252.909 158.241C252.664 156.859 252.378 154.942 252.112 152.826C251.846 150.71 251.533 148.798 251.268 147.421C251.135 146.732 251.023 146.182 250.944 145.794C250.881 145.607 250.842 145.414 250.827 145.218C250.912 145.405 250.978 145.6 251.023 145.799C251.14 146.177 251.278 146.727 251.432 147.411C251.746 148.782 252.075 150.694 252.362 152.816L253.079 158.241C253.169 158.889 253.243 159.439 253.307 159.883C253.356 160.073 253.381 160.268 253.382 160.464Z" fill="#263238"/>
<path d="M272.19 156.686C271.944 156.74 271.693 156.774 271.441 156.788C270.958 156.839 270.256 156.91 269.396 157.028C267.67 157.242 265.295 157.619 262.698 158.149C260.101 158.68 257.769 159.251 256.096 159.715C255.256 159.939 254.582 160.138 254.114 160.276C253.876 160.36 253.631 160.423 253.381 160.464C253.605 160.347 253.84 160.252 254.082 160.179C254.539 160.016 255.203 159.786 256.037 159.536C257.7 159.026 260.032 158.425 262.64 157.894C264.862 157.433 267.109 157.083 269.369 156.844C270.24 156.752 270.963 156.706 271.43 156.686C271.683 156.659 271.937 156.659 272.19 156.686Z" fill="#263238"/>
<path d="M245.658 180.545C245.606 180.478 245.561 180.407 245.525 180.331L245.185 179.688C244.893 179.132 244.49 178.316 244.011 177.302C243.045 175.262 241.807 172.427 240.485 169.271C239.162 166.114 237.956 163.264 237.037 161.219L235.954 158.797L235.662 158.139C235.621 158.063 235.591 157.983 235.571 157.9C235.571 157.9 235.63 157.971 235.709 158.114C235.789 158.256 235.911 158.501 236.049 158.756C236.341 159.312 236.74 160.128 237.223 161.143C238.185 163.182 239.428 166.017 240.75 169.174C242.073 172.33 243.278 175.18 244.197 177.225L245.292 179.647C245.408 179.912 245.504 180.157 245.584 180.305C245.621 180.381 245.646 180.462 245.658 180.545Z" fill="#263238"/>
<path d="M270.575 172.305C270.495 172.345 270.411 172.379 270.326 172.407L269.603 172.656L266.947 173.539C264.695 174.288 261.593 175.359 258.173 176.547C254.752 177.735 251.639 178.775 249.371 179.479C248.234 179.836 247.316 180.111 246.673 180.29L245.935 180.494C245.849 180.523 245.76 180.54 245.669 180.545C245.747 180.499 245.831 180.465 245.919 180.443L246.641 180.193L249.297 179.306C251.549 178.556 254.651 177.49 258.072 176.302C261.492 175.114 264.605 174.074 266.873 173.365C268.01 173.013 268.929 172.738 269.571 172.56L270.31 172.356C270.395 172.327 270.485 172.309 270.575 172.305Z" fill="#263238"/>
<path d="M30.3988 64.6926C46.9351 64.6926 60.3405 51.8236 60.3405 35.9489C60.3405 20.0741 46.9351 7.20508 30.3988 7.20508C13.8624 7.20508 0.457031 20.0741 0.457031 35.9489C0.457031 51.8236 13.8624 64.6926 30.3988 64.6926Z" fill="#FAFAFA"/>
<path d="M30.3932 65.126C24.382 65.126 18.5058 63.4148 13.5077 60.2088C8.50953 57.0027 4.61395 52.4459 2.31356 47.1144C0.01317 41.783 -0.588719 35.9165 0.584011 30.2566C1.75674 24.5968 4.65142 19.3979 8.90199 15.3174C13.1526 11.2369 18.5681 8.45806 24.4638 7.33225C30.3595 6.20644 36.4706 6.78425 42.0242 8.9926C47.5779 11.201 52.3246 14.9407 55.6643 19.7388C59.0039 24.537 60.7865 30.1781 60.7865 35.9488C60.7766 43.6842 57.5713 51.1 51.8736 56.5698C46.1759 62.0395 38.451 65.1166 30.3932 65.126ZM30.3932 7.63847C24.5593 7.63847 18.8565 9.29927 14.0058 12.4108C9.1552 15.5224 5.37468 19.945 3.14239 25.1192C0.910099 30.2935 0.326298 35.9871 1.46482 41.4799C2.60334 46.9727 5.41305 52.018 9.53861 55.9778C13.6642 59.9376 18.9203 62.6339 24.6422 63.7259C30.3641 64.8179 36.2949 64.2564 41.6844 62.1125C47.0739 59.9686 51.6801 56.3386 54.9205 51.6814C58.1609 47.0243 59.8899 41.5493 59.8888 35.9488C59.8804 28.4421 56.7699 21.2451 51.2401 15.9375C45.7103 10.6299 38.2129 7.64522 30.3932 7.63847Z" fill="#263238"/>
<path d="M30.7171 15.9908C30.6011 15.0775 30.562 14.1567 30.6002 13.2373C30.5618 12.3179 30.6009 11.3971 30.7171 10.4838C30.8333 11.3971 30.8724 12.3179 30.834 13.2373C30.8722 14.1567 30.8331 15.0775 30.7171 15.9908Z" fill="#263238"/>
<path d="M15.2337 21.4215C14.5468 20.9035 13.9103 20.3266 13.3322 19.698C12.6987 19.1207 12.1192 18.4911 11.6006 17.8164C12.2875 18.3344 12.924 18.9113 13.5022 19.5399C14.1357 20.1172 14.7151 20.7468 15.2337 21.4215Z" fill="#263238"/>
<path d="M11.2714 36.5505C10.0747 36.662 8.87184 36.6994 7.67014 36.6627C6.46845 36.6994 5.26553 36.662 4.06885 36.5505C5.26553 36.4391 6.46845 36.4016 7.67014 36.4383C8.87184 36.4016 10.0747 36.4391 11.2714 36.5505Z" fill="#263238"/>
<path d="M15.1646 50.6598C14.7055 51.2695 14.1957 51.8425 13.6402 52.3731C13.1407 52.9567 12.57 53.4805 11.9404 53.9334C12.4044 53.3259 12.9157 52.7532 13.4702 52.2201C13.9669 51.6359 14.5359 51.1119 15.1646 50.6598Z" fill="#263238"/>
<path d="M49.1646 53.6428C53.5333 49.4209 56.226 43.8649 56.7762 37.9375C57.711 27.2293 52.8456 21.6203 49.2443 17.8521L46.1157 20.728C49.3027 24.0067 54.2425 30.5234 52.904 38.2537C52.0693 43.0631 49.8252 47.5449 46.4344 51.1748L49.1646 53.6428Z" fill="#CFCC53"/>
<path d="M29.6656 39.6304C28.9851 39.5017 28.3597 39.182 27.8685 38.712C27.3774 38.2419 27.0425 37.6425 26.9062 36.9897C26.77 36.3368 26.8385 35.6599 27.1031 35.0444C27.3678 34.429 27.8166 33.9027 28.3929 33.5322C28.9692 33.1618 29.647 32.9637 30.3406 32.9631C31.0341 32.9626 31.7123 33.1595 32.2892 33.529C32.8662 33.8986 33.316 34.4241 33.5817 35.0391C33.8475 35.6541 33.9172 36.3309 33.7821 36.984C33.6932 37.4174 33.5161 37.8298 33.261 38.1974C33.0059 38.5651 32.6778 38.8808 32.2955 39.1266C31.9131 39.3724 31.4841 39.5434 31.0328 39.6299C30.5815 39.7163 30.1169 39.7165 29.6656 39.6304Z" fill="#263238"/>
<path d="M42.8173 44.2757L22.495 29.3302L20.5615 32.1602L42.8173 44.2757Z" fill="#263238"/>
<path d="M56.8772 35.7091C56.8772 35.7091 56.8772 35.5715 56.8772 35.2961C56.8772 35.0208 56.8772 34.6179 56.8188 34.0876C56.5641 30.4633 55.5031 26.9335 53.7072 23.7361C51.9114 20.5387 49.4223 17.7481 46.4079 15.5523C43.1358 13.1667 39.3292 11.5465 35.2907 10.8203C33.0499 10.4201 30.7646 10.3001 28.4918 10.4634C27.3029 10.5487 26.1212 10.7088 24.9542 10.9427C23.7578 11.1891 22.5796 11.5111 21.4273 11.9064C16.3399 13.6853 11.9456 16.9234 8.84058 21.1814C5.73555 25.4395 4.07007 30.5114 4.07007 35.7091C4.07007 40.9069 5.73555 45.9788 8.84058 50.2368C11.9456 54.4949 16.3399 57.733 21.4273 59.5119C22.5802 59.9065 23.7583 60.2301 24.9542 60.4807C28.3611 61.1613 31.8732 61.2011 35.296 60.598C39.3325 59.8705 43.137 58.2504 46.4079 55.866C49.4213 53.6693 51.9096 50.8784 53.7054 47.6812C55.5012 44.484 56.5628 40.9547 56.8188 37.3307C56.8666 36.8207 56.8559 36.3924 56.8772 36.1222C56.8984 35.8519 56.8772 35.7091 56.8772 35.7091C56.8772 35.7091 56.8772 36.27 56.84 37.3307C56.7512 38.8786 56.5111 40.4151 56.1229 41.9199C55.5125 44.3143 54.5389 46.6096 53.2334 48.7323C51.4861 51.5395 49.1965 54.0006 46.4876 55.9833C43.1993 58.3925 39.3708 60.0319 35.3066 60.7713C33.049 61.18 30.7455 61.3035 28.4546 61.1385C27.2563 61.0621 26.0652 60.9036 24.8905 60.6643C23.6844 60.4192 22.4972 60.0955 21.337 59.6954C16.2024 57.9076 11.766 54.6452 8.63071 50.3518C5.49544 46.0584 3.81348 40.9423 3.81348 35.6989C3.81348 30.4556 5.49544 25.3395 8.63071 21.0461C11.766 16.7527 16.2024 13.4903 21.337 11.7025C22.4972 11.3024 23.6844 10.9787 24.8905 10.7336C26.0661 10.4989 27.2568 10.3404 28.4546 10.2594C30.7457 10.096 33.0493 10.2212 35.3066 10.6316C37.4157 11.0046 39.4679 11.6299 41.415 12.4928C43.216 13.2785 44.9179 14.2588 46.4876 15.4146C49.1986 17.4033 51.4883 19.8714 53.2334 22.686C54.5338 24.8002 55.5071 27.0847 56.1229 29.4678C56.5108 30.9727 56.7508 32.5091 56.84 34.057C56.8984 35.1482 56.8772 35.7091 56.8772 35.7091Z" fill="#263238"/>
<path d="M56.8879 35.546C55.951 35.6605 55.0056 35.698 54.0621 35.6582C53.1168 35.6979 52.1696 35.6604 51.231 35.546C52.1699 35.4347 53.1168 35.3972 54.0621 35.4338C55.0056 35.397 55.9507 35.4346 56.8879 35.546Z" fill="#263238"/>
<path d="M49.1701 53.6428C48.3738 53.0681 47.6277 52.432 46.9392 51.7408C46.1954 51.1036 45.5029 50.4132 44.8677 49.6757C45.664 50.2503 46.4101 50.8864 47.0986 51.5776C47.8439 52.2134 48.5365 52.9038 49.1701 53.6428Z" fill="#263238"/>
<path d="M49.2443 17.8521C49.3187 17.9183 48.4476 18.775 47.3268 19.7591C46.6713 20.3818 45.9604 20.9482 45.2021 21.452C45.8033 20.7813 46.4606 20.1588 47.1675 19.5909C47.7305 19.0809 48.2298 18.6577 48.6228 18.3467C48.8206 18.1712 49.0281 18.0061 49.2443 17.8521Z" fill="#263238"/>
<path d="M44.5117 45.2751C44.0658 45.7256 43.5035 46.0545 42.882 46.2283C42.2606 46.4021 41.6022 46.4145 40.9741 46.2644C41.5945 46.2287 42.2109 46.1451 42.8173 46.0145C43.4014 45.8111 43.9679 45.5639 44.5117 45.2751Z" fill="#263238"/>
<path d="M45.4305 46.0604C45.255 46.2829 45.0323 46.4671 44.7772 46.6009C44.189 46.9627 43.5318 47.2088 42.8438 47.325C42.1549 47.4392 41.4495 47.4236 40.7669 47.2791C40.4807 47.2365 40.2072 47.1356 39.9648 46.9834C40.891 47.2199 41.8598 47.2599 42.8037 47.1005C43.7476 46.9411 44.644 46.5862 45.4305 46.0604Z" fill="#263238"/>
<path d="M23.8332 27.2752C23.2242 27.163 22.6047 27.1118 21.9847 27.1222C21.3699 27.2089 20.7664 27.3576 20.1841 27.5659C20.6791 27.1552 21.3093 26.9259 21.9635 26.9183C22.611 26.8245 23.2723 26.9507 23.8332 27.2752Z" fill="#263238"/>
<path d="M24.2369 26.5205C23.3609 26.3701 22.4699 26.3153 21.5811 26.3574C20.7016 26.4777 19.8392 26.6932 19.0103 26.9998C19.757 26.4841 20.6414 26.1834 21.5598 26.133C22.4724 26.0118 23.4021 26.1464 24.2369 26.5205Z" fill="#263238"/>
<path d="M67.1658 201.074L68.0316 195.883L58.3484 194.353L56.978 202.104L57.5676 202.236C60.2234 202.813 71.0911 204.817 72.9714 204.557C75.0695 204.251 67.1658 201.074 67.1658 201.074Z" fill="#CFCC53"/>
<path d="M73.2793 204.098C73.2793 204.184 69.6302 203.7 65.1578 203.012C60.6854 202.323 57.0735 201.696 57.0894 201.609C57.1053 201.523 60.7385 202.007 65.2109 202.695C69.6833 203.384 73.2952 204.011 73.2793 204.098Z" fill="#263238"/>
<path d="M67.1604 202.16C67.086 202.109 67.1975 201.844 67.4525 201.604C67.7075 201.364 67.9837 201.263 68.0368 201.334C68.0899 201.405 67.9199 201.614 67.6862 201.844C67.4525 202.073 67.2347 202.216 67.1604 202.16Z" fill="#263238"/>
<path d="M67.718 202.598C67.6384 202.553 67.718 202.252 67.9783 201.961C68.2386 201.67 68.5095 201.507 68.5679 201.574C68.6263 201.64 68.467 201.885 68.2386 202.16C68.0102 202.435 67.803 202.644 67.718 202.598Z" fill="#263238"/>
<path d="M60.0163 202.022C59.9738 202.022 59.8516 201.885 59.6764 201.625C59.4725 201.287 59.2341 200.969 58.9646 200.676C58.6998 200.396 58.3626 200.189 57.9872 200.074C57.7004 199.993 57.4986 200.008 57.4933 199.957C57.488 199.906 57.6845 199.819 58.0244 199.855C58.4767 199.919 58.8918 200.131 59.1983 200.457C59.4911 200.769 59.7215 201.13 59.8782 201.523C60.011 201.818 60.0535 202.007 60.0163 202.022Z" fill="#263238"/>
<path d="M67.3517 201.191C67.3836 201.268 67.1924 201.426 66.8949 201.477C66.5975 201.528 66.3638 201.477 66.3638 201.375C66.3638 201.273 66.5762 201.217 66.8312 201.166C67.0862 201.115 67.3146 201.104 67.3517 201.191Z" fill="#263238"/>
<path d="M67.2826 200.661C67.2826 200.753 67.0064 200.788 66.6771 200.742C66.3478 200.696 66.1034 200.589 66.1459 200.503C66.1884 200.416 66.4328 200.38 66.7461 200.426C67.0595 200.472 67.2879 200.574 67.2826 200.661Z" fill="#263238"/>
<path d="M101.421 199.952L101.219 194.7L91.4082 194.986L91.626 202.843H92.2368C94.9511 202.915 106.047 202.843 107.816 202.247C109.813 201.594 101.421 199.952 101.421 199.952Z" fill="#CFCC53"/>
<path d="M108.028 201.778C108.028 201.869 104.368 202.068 99.8428 202.231C95.3173 202.395 91.6469 202.446 91.6416 202.359C91.6363 202.272 95.3066 202.068 99.8322 201.91C104.358 201.752 108.023 201.691 108.028 201.778Z" fill="#263238"/>
<path d="M101.633 201.018C101.548 200.982 101.606 200.702 101.808 200.421C102.01 200.141 102.26 199.983 102.339 200.044C102.419 200.105 102.286 200.34 102.1 200.6C101.915 200.86 101.718 201.059 101.633 201.018Z" fill="#263238"/>
<path d="M102.271 201.344C102.186 201.319 102.217 201.003 102.398 200.671C102.579 200.34 102.823 200.131 102.897 200.161C102.972 200.192 102.86 200.482 102.695 200.793C102.531 201.104 102.361 201.375 102.271 201.344Z" fill="#263238"/>
<path d="M94.5951 202.221C94.5579 202.221 94.4092 202.114 94.1861 201.89C93.9145 201.599 93.6159 201.333 93.2938 201.094C92.9821 200.873 92.6162 200.732 92.2314 200.686C91.934 200.686 91.7374 200.712 91.7003 200.686C91.6631 200.661 91.8596 200.513 92.2314 200.482C92.6888 200.458 93.1402 200.59 93.5062 200.855C93.8564 201.106 94.1553 201.417 94.388 201.772C94.5473 202.012 94.6323 202.196 94.5951 202.221Z" fill="#263238"/>
<path d="M101.623 200.034C101.676 200.105 101.516 200.294 101.24 200.401C100.964 200.508 100.709 200.482 100.709 200.401C100.709 200.319 100.884 200.202 101.129 200.105C101.373 200.008 101.569 199.957 101.623 200.034Z" fill="#263238"/>
<path d="M101.452 199.529C101.452 199.615 101.203 199.702 100.873 199.717C100.544 199.733 100.278 199.677 100.278 199.585C100.278 199.493 100.539 199.411 100.857 199.396C101.176 199.381 101.436 199.442 101.452 199.529Z" fill="#263238"/>
<path d="M114.721 69.2053L114.19 67.492C114 66.5033 113.71 65.5349 113.324 64.6008C113.14 64.1296 112.874 63.6917 112.538 63.3056C112.142 62.8114 111.68 62.3706 111.162 61.9951C110.631 61.6943 110.763 60.9753 111.295 60.9192C111.826 60.8631 113.255 61.6637 114.349 63.1883C115.443 64.713 115.645 61.8421 115.741 60.7968C115.836 59.7515 116.272 56.534 116.638 56.3198C117.169 55.9985 117.626 56.4881 117.509 57.5283C117.392 58.5685 117.26 61.7198 117.833 61.7555C118.407 61.7912 118.805 56.4626 118.805 56.4626C118.805 56.4626 118.699 55.3051 119.368 55.3255C120.569 55.3612 119.703 60.9855 119.607 61.5158C119.544 61.888 120.165 61.9441 120.218 61.5464C120.271 61.1487 120.489 56.2178 121.711 56.2433C122.651 56.2433 121.047 60.8733 121.589 61.9339C122.13 62.9945 122.433 58.3033 123.331 58.3645C123.66 58.3645 123.91 58.441 123.331 61.0977C122.752 63.7543 119.894 70.9084 119.894 70.9084L114.678 69.1186" fill="#FFBE9D"/>
<path d="M78.8353 67.798L87.6633 68.4252C87.7801 67.4462 87.9554 63.6371 87.9554 63.6371C87.9554 63.6371 91.6417 63.3057 91.9073 59.8026C92.1729 56.2995 92.0666 48.2174 92.0666 48.2174C90.0461 47.2382 87.7898 46.7947 85.531 46.9327C83.2721 47.0708 81.0926 47.7854 79.2178 49.0026L78.6494 49.3698L78.8353 67.798Z" fill="#FFBE9D"/>
<path d="M90.8345 54.1935C90.7359 54.0961 90.6817 53.9651 90.6836 53.8293C90.6856 53.6935 90.7437 53.564 90.8452 53.4694C90.9466 53.3747 91.083 53.3226 91.2245 53.3245C91.3659 53.3264 91.5008 53.3822 91.5994 53.4796C91.6482 53.5278 91.6867 53.5848 91.7126 53.6472C91.7385 53.7097 91.7513 53.7765 91.7503 53.8437C91.7493 53.911 91.7346 53.9774 91.7068 54.0391C91.6791 54.1009 91.639 54.1568 91.5888 54.2036C91.5386 54.2505 91.4792 54.2874 91.4141 54.3123C91.3491 54.3372 91.2795 54.3495 91.2095 54.3485C91.1394 54.3476 91.0703 54.3334 91.0059 54.3068C90.9416 54.2802 90.8834 54.2417 90.8345 54.1935Z" fill="#263238"/>
<path d="M91.7749 53.4337C91.7111 53.4898 91.3712 53.2042 90.8666 53.1736C90.362 53.143 89.9848 53.3674 89.9317 53.3011C89.8786 53.2348 89.9742 53.1685 90.1389 53.0614C90.3629 52.9237 90.6281 52.861 90.8931 52.883C91.1574 52.8997 91.409 52.9981 91.6102 53.1634C91.7536 53.3062 91.8014 53.4337 91.7749 53.4337Z" fill="#263238"/>
<path d="M85.9529 53.5205C86.0684 53.5982 86.147 53.7169 86.1714 53.8503C86.1958 53.9837 86.164 54.1209 86.083 54.2318C86.002 54.3427 85.8785 54.4182 85.7395 54.4416C85.6006 54.465 85.4576 54.4345 85.3421 54.3567C85.2846 54.3181 85.2357 54.2689 85.1982 54.212C85.1606 54.1551 85.1352 54.0917 85.1234 54.0253C85.1115 53.9589 85.1135 53.891 85.1291 53.8253C85.1448 53.7597 85.1738 53.6977 85.2146 53.6429C85.2958 53.5329 85.4191 53.4583 85.5574 53.4354C85.6958 53.4125 85.838 53.4431 85.9529 53.5205Z" fill="#263238"/>
<path d="M86.2822 53.5459C86.2238 53.602 85.8838 53.3164 85.3792 53.2858C84.8746 53.2552 84.4975 53.4796 84.4444 53.4133C84.3913 53.347 84.4816 53.2807 84.6515 53.1737C84.8733 53.0352 85.137 52.9724 85.4005 52.9952C85.665 53.0108 85.9169 53.1093 86.1176 53.2756C86.2663 53.4337 86.3141 53.5204 86.2822 53.5459Z" fill="#263238"/>
<path d="M88.0456 57.6456C88.3119 57.5656 88.59 57.5277 88.8689 57.5334C89.0017 57.5334 89.1079 57.5029 89.1239 57.4366C89.1367 57.3088 89.1128 57.18 89.0548 57.0643C88.9433 56.738 88.837 56.4065 88.7202 56.0445C88.3962 55.1937 88.1613 54.314 88.019 53.4185C88.4274 54.2359 88.7512 55.0899 88.9858 55.968C89.092 56.3148 89.1929 56.6513 89.2992 56.9878C89.3678 57.1497 89.3808 57.3283 89.3363 57.4978C89.3142 57.5447 89.2811 57.5861 89.2397 57.6188C89.1982 57.6515 89.1495 57.6746 89.0973 57.6864C89.0233 57.6959 88.9483 57.6959 88.8742 57.6864C88.5975 57.7146 88.3179 57.7008 88.0456 57.6456Z" fill="#263238"/>
<path d="M86.3781 58.0842C85.8735 57.7527 87.775 58.9051 88.8002 58.9153C88.6134 59.1586 88.3463 59.3338 88.0424 59.4126C87.7386 59.4913 87.4159 59.4688 87.127 59.3487C86.0594 58.9 86.3781 58.0842 86.3781 58.0842Z" fill="white"/>
<path d="M87.9609 63.5861C86.2742 63.5149 84.6474 62.9647 83.2866 62.0054C83.2866 62.0054 84.248 64.5957 87.9131 64.4937L87.9609 63.5861Z" fill="#EB996E"/>
<path d="M78.7293 52.9239L79.1701 55.4377L80.7955 55.4071L80.6893 50.1703C80.6893 50.1703 87.1376 50.6497 87.8759 48.1715C87.8759 48.1715 89.7722 50.9097 92.1252 50.8995C92.1252 50.8995 94.1861 50.6955 92.2262 47.9369C89.1985 43.6944 78.4159 47.1058 78.4159 47.1058C78.144 47.8808 78.0128 48.6949 78.0281 49.5125C77.9856 52.2253 78.7293 52.9239 78.7293 52.9239Z" fill="#263238"/>
<path d="M77.8419 50.3742L92.1834 47.6411C92.1834 47.6411 91.1636 42.1238 83.4139 43.7301C75.8926 45.3057 77.8419 50.3742 77.8419 50.3742Z" fill="#CFCC53"/>
<path d="M77.8423 50.3743C78.0441 50.3386 95.4026 50.7312 96.6402 48.4264C97.2298 47.325 92.0934 47.2944 92.0934 47.2944L92.2103 47.6412L77.8423 50.3743Z" fill="#CFCC53"/>
<path opacity="0.2" d="M77.8423 50.3743C78.0441 50.3386 95.4026 50.7312 96.6402 48.4264C97.2298 47.325 92.0934 47.2944 92.0934 47.2944L92.2103 47.6412L77.8423 50.3743Z" fill="black"/>
<path d="M79.3505 52.4802C79.2708 52.4496 76.6416 52.1232 76.8912 55.1011C77.1409 58.079 80.1898 56.8552 80.1898 56.7685C80.1898 56.6818 79.3505 52.4802 79.3505 52.4802Z" fill="#FFBE9D"/>
<path d="M79.1541 55.7947C79.1541 55.7947 79.1009 55.8355 79.0106 55.8865C78.8863 55.9491 78.7411 55.962 78.607 55.9222C78.3969 55.816 78.2202 55.658 78.0951 55.4644C77.97 55.2707 77.901 55.0485 77.8952 54.8208C77.8642 54.5659 77.8951 54.3076 77.9855 54.0661C78.0052 53.9699 78.0495 53.88 78.1144 53.8043C78.1793 53.7287 78.2628 53.6697 78.3573 53.6327C78.4178 53.6125 78.4838 53.6132 78.5439 53.6346C78.604 53.656 78.6544 53.6968 78.6866 53.7499C78.7344 53.8315 78.7238 53.8927 78.7397 53.8978C78.7557 53.9029 78.8035 53.8417 78.7397 53.7193C78.7157 53.6467 78.6671 53.5839 78.6016 53.5409C78.5113 53.4872 78.4029 53.469 78.2989 53.4899C78.1726 53.5247 78.0576 53.5898 77.9647 53.679C77.8718 53.7682 77.804 53.8786 77.7677 53.9998C77.6598 54.2692 77.6198 54.5592 77.6509 54.8463C77.6579 55.1132 77.7468 55.3721 77.9065 55.5908C78.0662 55.8094 78.2895 55.9779 78.5485 56.0751C78.634 56.0911 78.722 56.0889 78.8064 56.0686C78.8909 56.0483 78.9696 56.0105 79.0372 55.9579C79.1541 55.8712 79.1647 55.7998 79.1541 55.7947Z" fill="#EB996E"/>
<path d="M87.8115 46.1444L86.0537 46.1768L86.0875 47.8643L87.8453 47.8319L87.8115 46.1444Z" fill="#263238"/>
<path d="M87.7937 45.2288L86.9121 45.2452L86.9292 46.0915L87.8108 46.0751L87.7937 45.2288Z" fill="#263238"/>
<path d="M114.073 67.0128C114.073 67.0128 111.359 83.5951 109.446 83.6818C107.263 83.7838 100.549 74.6411 100.549 74.6411C96.2523 68.2773 90.5848 67.2473 88.5185 67.0892V66.304L78.3627 65.5034C78.3627 65.5034 78.3627 66.3448 78.3627 67.079H73.8637C73.8637 67.079 65.8112 66.7221 64.6002 77.109L70.3952 81.5045L72.7695 89.9843C73.4919 92.5747 72.3871 95.8789 71.176 101.682L70.4483 101.519L70.1402 107.367C70.0977 107.643 70.0553 107.923 70.0181 108.204H70.0977L67.6438 154.906L55.0977 200.141L69.2213 200.651L82.2455 156.518C82.2455 156.518 83.3769 121.232 84.5242 121.211C86.4523 121.176 87.6846 199.707 88.4229 199.529C89.1612 199.35 103.667 199.493 103.667 199.493C103.667 199.493 98.8656 107.994 98.9134 107.994L97.6705 90.6574L97.1977 85.6501C99.9545 89.3724 105.165 95.1854 110.732 95.0834C119.799 94.9152 121.074 67.9306 121.074 67.9306L114.073 67.0128Z" fill="#455A64"/>
<path d="M84.0034 120.859C84.321 120.37 84.6015 119.858 84.8427 119.33C85.3242 118.033 85.5564 116.663 85.5279 115.286C85.5279 113.695 85.5279 112.262 85.5279 111.12C85.5001 110.545 85.5232 109.968 85.5969 109.397C85.6825 109.967 85.7251 110.543 85.7244 111.12C85.7563 112.186 85.8253 113.67 85.8094 115.291C85.8018 116.062 85.7308 116.831 85.5969 117.591C85.4848 118.216 85.294 118.825 85.0286 119.406C84.8449 119.795 84.6169 120.162 84.3487 120.503C84.1362 120.742 84.0406 120.875 84.0034 120.859Z" fill="#263238"/>
<path d="M75.6699 113.45C75.7217 113.605 75.7468 113.767 75.7442 113.93C75.7708 114.241 75.8027 114.684 75.8186 115.245C75.9003 116.714 75.5952 118.178 74.9316 119.503C74.5395 120.234 73.9578 120.856 73.2425 121.308C72.6521 121.666 71.9747 121.87 71.2771 121.9C70.8087 121.923 70.3408 121.846 69.9067 121.675C69.7443 121.621 69.5958 121.534 69.4712 121.42C70.0391 121.647 70.6526 121.748 71.2665 121.716C71.9224 121.658 72.5535 121.446 73.1044 121.099C73.7761 120.66 74.3237 120.068 74.6978 119.376C75.3366 118.086 75.6565 116.673 75.6327 115.245C75.6129 114.647 75.6253 114.048 75.6699 113.45Z" fill="#263238"/>
<path d="M99.9173 121.573C99.9173 121.573 99.8323 121.721 99.572 121.89C99.191 122.114 98.7491 122.224 98.3026 122.206C97.6369 122.179 96.9972 121.951 96.4753 121.553C95.8483 121.083 95.3093 120.514 94.8819 119.87C94.0793 118.721 93.5748 117.405 93.4105 116.031C93.3638 115.616 93.3513 115.198 93.3734 114.781C93.3702 114.629 93.3954 114.477 93.4477 114.333C93.4955 114.333 93.4477 114.98 93.6071 116.005C93.8203 117.335 94.3333 118.603 95.1103 119.722C95.5217 120.343 96.0347 120.896 96.6294 121.359C97.1058 121.738 97.6915 121.967 98.3079 122.017C98.7247 122.049 99.1428 121.973 99.5189 121.798C99.7792 121.67 99.9014 121.553 99.9173 121.573Z" fill="#263238"/>
<path d="M69.8694 197.647C69.8694 197.724 66.7355 197.673 62.8793 197.54C59.023 197.408 55.8892 197.229 55.8892 197.163C55.8892 197.097 59.023 197.137 62.8846 197.275C66.7462 197.413 69.8747 197.576 69.8694 197.647Z" fill="#263238"/>
<path d="M103.163 195.608C102.971 195.658 102.772 195.684 102.573 195.684L100.98 195.801C99.6199 195.883 97.7449 195.98 95.668 196.072C93.5912 196.163 91.7108 196.23 90.3564 196.27L88.7629 196.296C88.5643 196.311 88.3644 196.303 88.168 196.27C88.3608 196.223 88.5586 196.197 88.7576 196.194L90.3511 196.082C91.7108 195.995 93.5859 195.898 95.6627 195.806C97.7396 195.715 99.6199 195.648 100.974 195.613L102.568 195.582C102.767 195.57 102.966 195.579 103.163 195.608Z" fill="#263238"/>
<path d="M77.1037 121.941C77.1119 122.007 77.1119 122.073 77.1037 122.139V122.726C77.1037 123.236 77.0771 124.011 77.0612 124.98C77.0134 126.933 76.9231 129.763 76.7744 133.261C76.6256 136.759 76.4238 140.909 76.137 145.534C75.9935 147.844 75.8342 150.266 75.6058 152.775C75.4942 154.029 75.3933 155.325 75.1649 156.599C74.9365 157.874 74.6338 159.174 74.3576 160.485C71.9354 170.913 69.2159 180.224 67.0912 186.919C66.0289 190.269 65.0728 192.946 64.4035 194.797L63.5909 196.908C63.4952 197.137 63.4262 197.321 63.3678 197.454C63.3501 197.518 63.3233 197.58 63.2881 197.637C63.2974 197.572 63.3153 197.509 63.3412 197.448C63.389 197.311 63.4527 197.127 63.5377 196.893L64.3026 194.761C64.94 192.905 65.8961 190.218 66.9053 186.868C68.9769 180.162 71.6858 170.841 74.0867 160.424C74.3788 159.123 74.6709 157.833 74.894 156.559C75.1171 155.284 75.2234 154.009 75.3349 152.755C75.5527 150.246 75.7173 147.824 75.8661 145.519C76.1635 140.93 76.3972 136.743 76.5619 133.25C76.7265 129.758 76.8487 126.943 76.939 124.975C76.9762 124.006 77.0081 123.251 77.0293 122.721C77.0293 122.476 77.0399 122.282 77.0612 122.139C77.0718 122.072 77.0859 122.006 77.1037 121.941Z" fill="#263238"/>
<path d="M96.5974 195.949C96.5805 195.889 96.5716 195.828 96.5708 195.766C96.5708 195.633 96.5708 195.455 96.5283 195.225C96.4911 194.715 96.4433 194.037 96.3796 193.145C96.2681 191.324 96.1087 188.714 95.9069 185.496C95.5297 179.035 95.057 170.102 94.6215 160.24C94.1859 150.378 93.8672 141.429 93.66 134.964C93.5697 131.741 93.4901 129.125 93.4423 127.315C93.4423 126.423 93.4051 125.724 93.3944 125.235V124.689C93.3887 124.628 93.3887 124.566 93.3944 124.505C93.4002 124.566 93.4002 124.628 93.3944 124.689C93.3944 124.827 93.3945 125.005 93.4263 125.229C93.4263 125.739 93.4794 126.423 93.5219 127.315C93.5963 129.135 93.6972 131.751 93.83 134.964C94.0956 141.44 94.4674 150.368 94.8923 160.23C95.3173 170.092 95.7688 179.025 96.0981 185.491C96.2628 188.714 96.3902 191.324 96.4858 193.14C96.523 194.032 96.5549 194.731 96.5761 195.225C96.5761 195.45 96.5761 195.628 96.5761 195.766C96.589 195.826 96.5961 195.888 96.5974 195.949Z" fill="#263238"/>
<path d="M84.9329 66.0184C84.973 66.4748 84.973 66.9337 84.9329 67.3901C84.9186 68.5348 84.8013 69.6761 84.5824 70.8014L84.5505 70.9697L84.3912 70.8881C84.0512 70.7198 83.7006 70.5414 83.3554 70.3425C81.8787 69.5164 80.6252 68.6547 79.6957 68.0632C78.7661 67.4717 78.1978 67.1096 78.2137 67.0791C78.7734 67.3003 79.3075 67.5772 79.8072 67.9051C80.7633 68.4609 82.0381 69.2972 83.4988 70.113C83.844 70.3068 84.1893 70.4904 84.5186 70.6586L84.3221 70.7453C84.5457 69.6342 84.6912 68.5098 84.7577 67.3799C84.7779 66.9223 84.8365 66.467 84.9329 66.0184Z" fill="#263238"/>
<path d="M88.545 67.1555C88.4793 67.5844 88.3834 68.0086 88.2581 68.4251C88.1572 68.8127 88.051 69.2818 87.8757 69.7968C87.7858 70.0668 87.6776 70.3308 87.5517 70.5872C87.511 70.6763 87.4447 70.7523 87.3605 70.8064C87.3029 70.8439 87.2332 70.8603 87.1641 70.8528C87.0949 70.8453 87.0309 70.8144 86.9834 70.7656C86.8799 70.6289 86.7992 70.4775 86.7443 70.3169C86.2503 69.1849 85.8148 68.16 85.5173 67.4104C85.3349 67.0158 85.196 66.6039 85.103 66.1815C85.3487 66.5481 85.5552 66.9376 85.7192 67.3441C86.0644 68.0784 86.5265 69.0931 87.0205 70.2251C87.0679 70.3521 87.1266 70.4749 87.1958 70.5923C87.2224 70.5923 87.1958 70.5923 87.2383 70.5923C87.2771 70.5622 87.3081 70.5237 87.3286 70.4801C87.4532 70.233 87.5631 69.9793 87.6579 69.7203C87.8385 69.2104 87.966 68.7668 88.0882 68.3792C88.1834 67.9537 88.337 67.5422 88.545 67.1555Z" fill="#263238"/>
<path d="M86.6383 101.998C86.6097 101.877 86.5955 101.754 86.5958 101.631C86.5958 101.366 86.5534 101.019 86.5215 100.585C86.4737 99.6472 86.3993 98.3367 86.3143 96.7305C86.1603 93.4517 85.9531 88.9696 85.7194 84.0183C85.4857 79.0671 85.3423 74.5849 85.1883 71.3011C85.1351 69.6949 85.098 68.3895 85.0661 67.4462C85.0661 67.0127 85.0661 66.666 85.0661 66.4263C85.0581 66.3041 85.0581 66.1815 85.0661 66.0592C85.0956 66.1779 85.1116 66.2993 85.1139 66.4212C85.1139 66.6864 85.1564 67.0331 85.1829 67.4666C85.2361 68.4099 85.3051 69.7153 85.3954 71.3215C85.5494 74.6002 85.7566 79.0824 85.985 84.0336C86.2134 88.9849 86.3674 93.4721 86.5162 96.7508C86.5693 98.3571 86.6118 99.6675 86.6436 100.606C86.6436 101.039 86.6436 101.391 86.6436 101.656C86.6549 101.77 86.6531 101.884 86.6383 101.998Z" fill="#263238"/>
<path d="M93.1114 76.5809L88.231 76.6716L88.2505 77.6403L93.131 77.5495L93.1114 76.5809Z" fill="white"/>
<path d="M97.7501 92.4114C97.6704 92.4114 97.3624 88.8727 97.0596 84.4925C96.7568 80.1124 96.5709 76.5685 96.6453 76.5634C96.7196 76.5583 97.0277 80.1022 97.3358 84.4772C97.6439 88.8523 97.851 92.4063 97.7501 92.4114Z" fill="#263238"/>
<path d="M120.914 71.3266C119.677 71.1902 118.452 70.9669 117.249 70.6586C116.027 70.4328 114.824 70.1226 113.648 69.7306C114.885 69.867 116.11 70.0903 117.313 70.3986C118.536 70.6216 119.74 70.9318 120.914 71.3266Z" fill="#263238"/>
<path d="M115.13 68.1907C115.229 68.1886 115.326 68.2149 115.41 68.2661C115.493 68.3173 115.559 68.3911 115.598 68.4782C115.638 68.5653 115.649 68.6617 115.632 68.7552C115.614 68.8487 115.568 68.9351 115.499 69.0033C115.43 69.0716 115.342 69.1186 115.245 69.1385C115.148 69.1585 115.048 69.1503 114.956 69.1151C114.864 69.08 114.785 69.0193 114.729 68.941C114.673 68.8626 114.642 68.7701 114.641 68.6751C114.64 68.6124 114.651 68.55 114.675 68.4916C114.699 68.4333 114.735 68.38 114.78 68.335C114.826 68.2899 114.88 68.2539 114.94 68.2292C115 68.2044 115.065 68.1913 115.13 68.1907Z" fill="#263238"/>
<path d="M93.0606 74.4191L91.3027 74.4515L91.3365 76.139L93.0943 76.1066L93.0606 74.4191Z" fill="#CFCC53"/>
<path d="M93.0373 73.4975L92.1558 73.5139L92.1728 74.3602L93.0544 74.3438L93.0373 73.4975Z" fill="#CFCC53"/>
<path d="M119.379 83.0698L118.657 110.299L74.1504 110.08L74.2938 82.4885L119.379 83.0698Z" fill="#CFCC53"/>
<path d="M92.9434 110.141C92.8691 110.141 92.9434 104.058 93.1665 96.5621C93.3896 89.0664 93.602 83.0087 93.6605 83.0087C93.7189 83.0087 93.6605 89.0868 93.4427 96.5876C93.2249 104.088 93.0178 110.141 92.9434 110.141Z" fill="#263238"/>
<path d="M74.1504 110.08C74.1972 109.979 74.256 109.883 74.3257 109.794L74.8568 108.994L76.9337 106.092L83.8707 96.5672C86.5849 92.85 89.0283 89.4795 90.7758 87.0217C91.6523 85.7928 92.3693 84.7934 92.8261 84.0999L93.3573 83.2993C93.4269 83.1938 93.5089 83.0963 93.6016 83.0087C93.5637 83.1141 93.51 83.2138 93.4423 83.3044L92.943 84.1356C92.4915 84.8444 91.8169 85.8642 90.9671 87.1033C89.262 89.5916 86.8399 92.9826 84.131 96.6998C81.422 100.417 78.9309 103.762 77.1249 106.179L75.0002 109.035C74.7559 109.351 74.5541 109.606 74.4053 109.805C74.3338 109.907 74.248 110 74.1504 110.08Z" fill="#263238"/>
<path d="M92.5022 110.355C92.4385 110.396 88.3379 104.262 83.3503 96.654C78.3626 89.0461 74.363 82.8455 74.432 82.8098C74.5011 82.7742 78.5911 88.9033 83.584 96.5112C88.5769 104.119 92.566 110.32 92.5022 110.355Z" fill="#263238"/>
<path d="M98.1268 106.338L105.271 106.544L105.315 105.137L98.1708 104.931L98.1268 106.338Z" fill="#263238"/>
<path d="M97.9468 104.547C99.1062 104.414 100.275 104.371 101.442 104.42C102.609 104.374 103.778 104.42 104.937 104.558C103.777 104.685 102.609 104.728 101.442 104.685C100.275 104.725 99.1064 104.679 97.9468 104.547Z" fill="#263238"/>
<path d="M110.376 82.8506L110.1 93.365L108.57 92.1769L106.557 93.2783L106.839 82.769L110.376 82.8506Z" fill="#263238"/>
<path d="M73.4175 80.0767C73.4175 80.0767 71.261 94.5277 72.2808 95.3741C77.9324 99.9378 85.7883 102.329 88.5982 103.084C89.0072 102.987 89.4906 102.865 90.0377 102.696C90.5153 102.551 90.9628 102.327 91.3602 102.034C91.8714 101.691 92.3307 101.283 92.7253 100.82C92.7866 100.724 92.8765 100.649 92.9834 100.603C93.0902 100.558 93.2089 100.544 93.3239 100.564C93.4389 100.585 93.5448 100.638 93.6275 100.718C93.7103 100.797 93.7661 100.898 93.7877 101.009C93.8142 101.519 92.9803 102.793 91.4134 103.726C91.4134 103.726 95.0147 109.29 96.162 109.789C97.3093 110.289 100.597 111.712 100.039 111.987C99.4817 112.262 95.4874 111.141 95.4874 111.141L87.3818 109.06C87.3818 109.06 60.5633 105.027 62.3534 93.2172C63.4476 85.9815 64.6427 79.4495 65.0729 77.8076L73.4175 80.0767Z" fill="#FFBE9D"/>
<path d="M64.6108 77.1141L62.2047 92.8806C61.6735 97.7401 65.0358 101.59 69.5931 103.762C76.5302 107.061 86.8294 109.412 86.7444 109.397C86.6595 109.381 87.4403 102.385 87.4403 102.385C87.4403 102.385 73.0032 96.3837 72.5677 93.8036C72.1321 91.2234 74.4002 80.4388 74.4002 80.4388L64.6108 77.1141Z" fill="#455A64"/>
<path d="M86.7445 109.397C86.7375 109.356 86.7375 109.315 86.7445 109.274C86.7445 109.177 86.7445 109.055 86.7445 108.907C86.7711 108.565 86.8082 108.096 86.856 107.505C86.9676 106.266 87.1269 104.512 87.3235 102.355L87.3819 102.447L80.1156 99.0709L77.9909 98.0868C77.2845 97.7247 76.578 97.3321 75.8663 96.8987C75.152 96.4593 74.4672 95.9774 73.816 95.4556C73.4866 95.1905 73.1626 94.9151 72.8492 94.6194C72.678 94.4755 72.5357 94.3027 72.4296 94.1094C72.3767 94.0093 72.3374 93.9031 72.3128 93.7933C72.2799 93.6864 72.255 93.5773 72.2384 93.4669C72.0047 91.7485 72.4881 90.1168 72.7324 88.5667C72.9767 87.0165 73.2636 85.5072 73.5451 84.0693C74.0762 81.2086 74.533 78.6336 74.9314 76.4614C75.1452 75.4983 75.2678 74.5187 75.2979 73.5345C75.3054 72.7932 75.146 72.0592 74.8305 71.3826C74.6262 70.9575 74.3375 70.5747 73.9806 70.2557C73.731 70.0365 73.5769 69.9549 73.5823 69.9396C73.7397 70.0121 73.8862 70.1047 74.0178 70.2149C74.3994 70.5234 74.7088 70.9057 74.9261 71.3367C75.2711 72.0205 75.4526 72.7696 75.4573 73.5294C75.4449 74.5246 75.3346 75.5166 75.1279 76.492C74.7508 78.6693 74.2993 81.2494 73.8 84.1151L73.0033 88.6177C72.9342 89.0052 72.8652 89.4029 72.7908 89.8007C72.7165 90.1984 72.6421 90.5859 72.5837 90.9888C72.4457 91.7945 72.4242 92.6147 72.5199 93.4261C72.533 93.5262 72.5543 93.6251 72.5837 93.7219C72.6061 93.8171 72.6399 93.9095 72.6846 93.9973C72.7724 94.1714 72.8973 94.326 73.0511 94.4511C73.3539 94.7417 73.6726 95.012 73.9966 95.2771C74.6395 95.7893 75.3135 96.2643 76.015 96.6998C76.7055 97.1332 77.4066 97.5258 78.1025 97.8828L80.1953 98.872L87.4244 102.299L87.4881 102.329V102.385C87.2544 104.542 87.0632 106.296 86.957 107.53C86.8879 108.122 86.8348 108.586 86.7976 108.927C86.7976 109.075 86.7604 109.193 86.7445 109.29C86.7286 109.386 86.7498 109.402 86.7445 109.397Z" fill="#263238"/>
<path d="M85.4061 101.396C85.4257 101.757 85.3971 102.118 85.3211 102.472C85.2308 103.135 85.0874 104.043 84.8962 105.022C84.705 106.001 84.4872 106.918 84.3066 107.571C84.2325 107.924 84.1129 108.267 83.9507 108.591C83.8763 108.591 84.2376 106.969 84.6253 104.981C84.81 103.772 85.0707 102.575 85.4061 101.396Z" fill="#263238"/>
<path d="M86.7444 109.397C86.6598 109.396 86.5757 109.384 86.4947 109.361L85.7776 109.193L83.1643 108.54C80.9706 107.969 77.9111 107.224 74.6657 106.067C73.1238 105.527 71.6224 104.887 70.172 104.15C68.9913 103.54 67.8618 102.842 66.7938 102.064C66.0777 101.534 65.4015 100.957 64.7701 100.335C64.5523 100.116 64.3823 99.9378 64.2761 99.8256C64.2149 99.7669 64.163 99.6999 64.1221 99.6267C64.1221 99.6267 64.3823 99.8562 64.8498 100.274C65.5027 100.863 66.1927 101.413 66.916 101.921C67.9856 102.684 69.115 103.366 70.2942 103.961C71.7384 104.683 73.2307 105.314 74.7613 105.848C78.012 106.995 81.0609 107.77 83.2599 108.397L85.8467 109.137L86.5478 109.346C86.6145 109.358 86.6802 109.375 86.7444 109.397Z" fill="#263238"/>
<path d="M86.9253 103.084C86.9267 103.143 86.916 103.201 86.8938 103.256C86.8716 103.311 86.8383 103.362 86.7959 103.404C86.7535 103.447 86.7027 103.481 86.6466 103.505C86.5904 103.529 86.5299 103.542 86.4685 103.543C86.3458 103.543 86.2279 103.497 86.1397 103.415C86.0515 103.334 85.9999 103.222 85.9957 103.104C85.9943 103.045 86.005 102.987 86.0272 102.932C86.0494 102.877 86.0827 102.827 86.1251 102.784C86.1675 102.741 86.2183 102.707 86.2744 102.683C86.3306 102.66 86.3912 102.647 86.4525 102.645C86.5752 102.645 86.6931 102.691 86.7813 102.773C86.8695 102.855 86.9211 102.966 86.9253 103.084Z" fill="#263238"/>
<path d="M212.094 29.014H153.475V202.838H212.094V29.014Z" fill="#E0E0E0"/>
<path d="M191.936 30.3448V195.067L219.982 202.843L220.072 30.3448H191.936Z" fill="#455A64"/>
<path d="M195.394 110.202C195.447 111.492 194.932 112.558 194.242 112.589C193.551 112.619 192.946 111.569 192.892 110.299C192.839 109.03 193.355 107.943 194.045 107.918C194.736 107.892 195.341 108.912 195.394 110.202Z" fill="white"/>
<path d="M194.098 109.244L199.622 109.952C199.766 109.97 199.898 110.037 199.995 110.139C200.092 110.242 200.148 110.375 200.153 110.513C200.157 110.601 200.14 110.688 200.104 110.769C200.068 110.85 200.014 110.921 199.945 110.979C199.876 111.037 199.795 111.079 199.707 111.103C199.619 111.126 199.526 111.13 199.436 111.115L194.125 110.253L194.098 109.244Z" fill="white"/>
<path d="M146.628 22.8696V28.5552V30.345V202.843H155.833V30.345H209.852V202.843H219.982V30.345V28.5552V22.8696H146.628Z" fill="#263238"/>
<path d="M155.833 30.3448H151.233V202.838H155.833V30.3448Z" fill="#263238"/>
<path opacity="0.5" d="M155.833 30.3448H151.233V202.838H155.833V30.3448Z" fill="black"/>
<path d="M220.072 22.8696H215.472V202.843H220.072V22.8696Z" fill="#263238"/>
<path opacity="0.5" d="M220.072 22.8696H215.472V202.843H220.072V22.8696Z" fill="black"/>
<path d="M189.615 12.3654H174.498V15.6033H189.615V12.3654Z" fill="#455A64"/>
<path d="M183.799 57.4111C183.886 58.9803 184.496 60.4812 185.538 61.6929C186.58 62.9046 188 63.7631 189.589 64.142C191.23 64.5244 193.121 64.3459 194.422 65.4015C196.653 67.2219 195.347 71.0105 196.855 73.4224C197.779 74.9215 199.617 75.6558 200.658 77.0785C202.39 79.4394 201.227 83.0138 198.868 84.773C196.51 86.5322 193.36 86.8688 190.407 86.8127C183.9 86.6495 177.234 84.666 172.533 80.2399C170.323 78.1595 163.158 70.2507 166.414 58.8542" fill="#263238"/>
<path d="M160.3 74.177C160.3 74.177 148.917 83.6767 148.614 82.5192C147.021 76.232 147.467 68.2009 147.727 65.1261C147.903 64.866 148.11 64.5754 148.354 64.2541C148.632 63.882 148.975 63.5593 149.369 63.3006C149.844 62.9562 150.366 62.6749 150.92 62.4644C151.036 62.4511 151.144 62.4015 151.227 62.3234C151.311 62.2452 151.365 62.1428 151.382 62.032C151.399 61.9212 151.378 61.8081 151.321 61.7102C151.264 61.6123 151.175 61.5351 151.068 61.4904C150.612 61.3272 149.156 61.6893 147.807 62.7703C146.458 63.8513 147.01 61.2814 147.191 60.3431C147.372 59.4049 147.796 56.4678 147.536 56.1924C147.159 55.7845 146.628 56.1108 146.474 57.0542C146.32 57.9975 145.624 60.7969 145.109 60.695C144.594 60.593 145.603 55.81 145.603 55.81C145.603 55.81 145.985 54.8157 145.396 54.678C144.333 54.4281 143.664 59.5782 143.611 60.0678C143.574 60.4094 143.011 60.3176 143.08 59.9505C143.149 59.5833 144.19 55.2032 143.112 54.938C142.283 54.7341 142.517 59.1652 141.773 59.9709C141.029 60.7765 141.954 56.5851 141.152 56.4015C140.854 56.3403 140.62 56.3352 140.456 58.8083C140.416 60.7994 140.491 62.791 140.679 64.7743C139.972 71.5561 138.586 92.335 148.365 91.6212C159.902 90.7747 162.558 82.045 162.558 82.045L160.3 74.177Z" fill="#B78876"/>
<path d="M169.394 71.0869C169.558 70.2098 169.266 66.5283 169.266 66.5283C169.266 66.5283 165.861 66.1152 165.718 62.7855C165.574 59.4558 165.914 51.7765 165.914 51.7765L172.177 48.8904L178.912 54.1017L177.743 71.0308L169.394 71.0869Z" fill="#B78876"/>
<path d="M166.494 57.3855C166.494 57.468 166.519 57.5487 166.567 57.6173C166.614 57.6859 166.682 57.7395 166.761 57.7713C166.841 57.8031 166.928 57.8117 167.012 57.796C167.097 57.7802 167.174 57.7409 167.235 57.683C167.296 57.625 167.338 57.551 167.356 57.4702C167.373 57.3894 167.365 57.3055 167.333 57.229C167.301 57.1525 167.246 57.0869 167.175 57.0403C167.104 56.9938 167.02 56.9684 166.935 56.9674C166.819 56.9674 166.707 57.0113 166.625 57.0896C166.542 57.1678 166.495 57.2742 166.494 57.3855Z" fill="#263238"/>
<path d="M166.085 56.9114C166.138 56.9675 166.462 56.7074 166.929 56.6921C167.397 56.6768 167.742 56.9012 167.79 56.84C167.837 56.7788 167.758 56.7074 167.604 56.6054C167.403 56.4683 167.16 56.4001 166.913 56.4117C166.668 56.4237 166.433 56.5113 166.244 56.6615C166.101 56.7788 166.058 56.8859 166.085 56.9114Z" fill="#263238"/>
<path d="M171.502 57.4672C171.502 57.5497 171.528 57.6303 171.575 57.699C171.623 57.7676 171.691 57.8212 171.77 57.853C171.849 57.8848 171.937 57.8934 172.021 57.8776C172.105 57.8619 172.183 57.8226 172.244 57.7646C172.305 57.7067 172.347 57.6326 172.365 57.5519C172.382 57.4711 172.374 57.3872 172.342 57.3107C172.31 57.2342 172.255 57.1686 172.184 57.122C172.113 57.0755 172.029 57.0501 171.943 57.0491C171.827 57.0491 171.716 57.093 171.633 57.1712C171.551 57.2495 171.504 57.3558 171.502 57.4672Z" fill="#263238"/>
<path d="M171.242 57.0032C171.301 57.0593 171.625 56.7992 172.092 56.7788C172.56 56.7584 172.9 56.993 172.953 56.9318C173.006 56.8706 172.921 56.7992 172.767 56.6921C172.564 56.5585 172.322 56.4921 172.076 56.5031C171.831 56.5142 171.596 56.602 171.407 56.7533C171.264 56.8655 171.216 56.9726 171.242 57.0032Z" fill="#263238"/>
<path d="M169.495 60.8479C169.249 60.774 168.993 60.7361 168.735 60.7357C168.618 60.7357 168.501 60.7051 168.48 60.6235C168.471 60.497 168.497 60.3705 168.555 60.2564L168.889 59.3131C169.204 58.5096 169.456 57.6846 169.643 56.8451C169.269 57.6224 168.955 58.4251 168.703 59.2468C168.592 59.5833 168.48 59.8944 168.379 60.2003C168.307 60.3501 168.288 60.5186 168.326 60.6796C168.342 60.7217 168.368 60.7594 168.402 60.7896C168.436 60.8198 168.478 60.8416 168.523 60.853C168.59 60.8621 168.658 60.8621 168.725 60.853C168.98 60.8837 169.239 60.882 169.495 60.8479Z" fill="#263238"/>
<path d="M171.024 61.3068C171.503 61.006 169.707 62.0462 168.762 62.0309C168.923 62.2657 169.164 62.4398 169.444 62.5234C169.724 62.607 170.025 62.5952 170.297 62.4898C170.426 62.4583 170.547 62.4027 170.653 62.3261C170.76 62.2495 170.849 62.1535 170.917 62.0436C170.984 61.9336 171.029 61.812 171.047 61.6855C171.066 61.5591 171.058 61.4304 171.024 61.3068Z" fill="white"/>
<path d="M169.266 66.5283C170.879 66.4863 172.444 65.9937 173.77 65.1107C173.77 65.1107 172.708 67.543 169.325 67.3441L169.266 66.5283Z" fill="#A36957"/>
<path d="M183.799 57.462C183.767 57.2274 183.73 56.8705 183.692 56.4983C183.639 55.9884 183.581 55.4377 183.512 55.1419C181.791 48.1714 175.619 46.7742 174.397 46.7538C173.08 46.7283 170.796 45.9788 167.38 49.3544C166.409 50.2497 165.735 51.4007 165.443 52.6627C165.151 53.9247 165.254 55.2413 165.739 56.4473L166.313 55.9374L171.279 54.7646C170.907 53.4439 171.513 51.8224 171.853 51.0677L171.885 51.0371C172.782 56.0393 178.344 56.6461 178.344 56.6461L177.812 69.9039C183.289 68.8433 183.724 60.3175 183.714 57.4314L183.799 57.462Z" fill="#263238"/>
<path d="M185.95 116.969C185.95 116.903 185.95 116.836 185.95 116.796C185.95 116.755 185.961 116.877 185.95 116.969Z" fill="#B78876"/>
<path d="M192.399 197.805C192.399 197.805 179.576 156.314 179.332 154.973C179.109 153.774 185.047 124.664 185.908 117.112L167.88 117.275C167.88 117.275 167.88 117.321 167.88 117.402L159.169 117.632L163.53 200.544L173.091 200.783L172.947 173.528C177.675 186.837 183.656 201.874 183.656 201.874L192.399 197.805Z" fill="#B78876"/>
<path d="M167.216 153.117C167.242 153.117 167.216 153.443 167.157 154.024C167.115 154.844 167.131 155.665 167.205 156.482C167.316 157.695 167.529 158.897 167.843 160.077C168.258 161.518 168.769 162.931 169.372 164.309C170.557 167.287 171.619 169.984 172.373 171.958L173.276 174.283C173.395 174.565 173.491 174.854 173.563 175.15C173.414 174.882 173.285 174.604 173.175 174.319L172.214 172.024C171.412 170.081 170.323 167.389 169.133 164.411C168.841 163.667 168.554 162.937 168.273 162.234C168.014 161.551 167.796 160.855 167.619 160.148C167.312 158.954 167.115 157.735 167.03 156.508C166.975 155.68 166.989 154.85 167.072 154.024C167.104 153.734 167.141 153.514 167.173 153.356C167.174 153.275 167.188 153.194 167.216 153.117Z" fill="#A36957"/>
<path d="M172.995 183.431C172.995 183.181 173.165 174.191 173.165 174.191C173.165 174.191 170.021 165.859 169.941 166.109C169.861 166.359 172.995 183.431 172.995 183.431Z" fill="#A36957"/>
<path d="M183.985 201.732L192.42 197.805L193.392 199.544L190.412 201.161C188.378 202.226 181.462 205.704 179.826 205.984C178.004 206.3 183.985 201.732 183.985 201.732Z" fill="#CFCC53"/>
<path d="M179.449 205.75C179.406 205.689 182.487 204.22 186.327 202.481C190.168 200.742 193.307 199.381 193.344 199.422C193.381 199.463 190.306 200.952 186.465 202.685C182.625 204.419 179.486 205.811 179.449 205.75Z" fill="#263238"/>
<path d="M191.198 200.477C191.155 200.477 191.14 200.324 191.155 200.079C191.177 199.754 191.269 199.436 191.426 199.146C191.602 198.83 191.885 198.58 192.228 198.438C192.51 198.33 192.706 198.356 192.706 198.381C192.706 198.407 192.547 198.463 192.335 198.591C192.067 198.758 191.846 198.985 191.692 199.253C191.554 199.528 191.444 199.815 191.363 200.11C191.294 200.34 191.235 200.482 191.198 200.477Z" fill="#263238"/>
<path d="M183.528 202.104C183.528 202.175 183.788 202.272 184.123 202.379C184.457 202.486 184.739 202.558 184.787 202.496C184.835 202.435 184.595 202.242 184.229 202.124C183.862 202.007 183.538 202.027 183.528 202.104Z" fill="#263238"/>
<path d="M182.949 202.537C182.949 202.614 183.172 202.751 183.48 202.848C183.788 202.945 184.097 202.976 184.134 202.904C184.171 202.833 183.921 202.7 183.603 202.599C183.284 202.497 182.97 202.466 182.949 202.537Z" fill="#263238"/>
<path d="M182.471 202.94C182.439 203.006 182.62 203.134 182.853 203.251C183.087 203.368 183.315 203.435 183.385 203.379C183.454 203.323 183.284 203.149 183.029 203.022C182.774 202.894 182.508 202.869 182.471 202.94Z" fill="#263238"/>
<path d="M183.565 202.17C183.611 201.884 183.58 201.59 183.475 201.319C183.391 201.005 183.243 200.71 183.039 200.452C182.908 200.291 182.754 200.148 182.582 200.028C182.482 199.959 182.373 199.903 182.258 199.86C182.11 199.804 181.945 199.804 181.796 199.86C181.734 199.891 181.679 199.935 181.637 199.988C181.594 200.041 181.564 200.103 181.548 200.169C181.533 200.234 181.533 200.302 181.549 200.368C181.564 200.434 181.594 200.495 181.637 200.549C181.753 200.713 181.884 200.866 182.03 201.008C182.272 201.243 182.535 201.458 182.816 201.65C183.064 201.851 183.349 202.007 183.655 202.109C183.687 202.078 183.395 201.869 182.965 201.512C182.714 201.305 182.476 201.084 182.253 200.849C182.127 200.72 182.014 200.58 181.913 200.431C181.817 200.299 181.844 200.136 181.94 200.1C182.035 200.064 182.232 200.1 182.391 200.227C182.544 200.327 182.682 200.448 182.8 200.584C182.999 200.817 183.155 201.081 183.262 201.364C183.337 201.641 183.438 201.911 183.565 202.17Z" fill="#263238"/>
<path d="M183.565 202.012C183.329 201.787 183.044 201.613 182.731 201.502C182.391 201.358 182.035 201.254 181.669 201.191C181.45 201.154 181.228 201.135 181.005 201.135C180.878 201.136 180.751 201.152 180.628 201.181C180.55 201.198 180.478 201.231 180.415 201.278C180.378 201.306 180.348 201.343 180.329 201.384C180.309 201.426 180.301 201.472 180.304 201.517C180.343 201.641 180.411 201.754 180.503 201.848C180.595 201.942 180.709 202.014 180.835 202.058C181.04 202.154 181.258 202.221 181.483 202.257C181.851 202.306 182.223 202.317 182.593 202.287C183.236 202.252 183.586 202.038 183.555 202.012C183.232 202.057 182.908 202.086 182.583 202.099C182.226 202.101 181.871 202.072 181.52 202.012C181.335 201.976 181.157 201.916 180.989 201.834C180.83 201.752 180.649 201.599 180.638 201.502C180.628 201.405 180.835 201.39 181.037 201.4C181.239 201.392 181.442 201.402 181.642 201.431C181.986 201.483 182.324 201.565 182.652 201.676C182.947 201.81 183.252 201.923 183.565 202.012Z" fill="#263238"/>
<path d="M184.15 201.645C184.197 201.721 186.157 201.002 188.436 199.927C190.715 198.851 192.473 197.887 192.414 197.805C192.356 197.724 190.497 198.585 188.224 199.656C185.95 200.727 184.096 201.568 184.15 201.645Z" fill="#263238"/>
<path d="M164.624 200.452L173.085 200.513L172.942 202.864H172.411C169.957 202.864 159.923 202.69 158.314 202.196C156.497 201.655 164.624 200.452 164.624 200.452Z" fill="#CFCC53"/>
<path d="M158.106 201.818C158.106 201.752 161.437 201.874 165.543 202.094C169.649 202.313 172.952 202.553 172.947 202.604C172.942 202.655 169.622 202.553 165.511 202.333C161.4 202.114 158.101 201.9 158.106 201.818Z" fill="#263238"/>
<path d="M170.259 202.461C170.227 202.435 170.307 202.303 170.477 202.104C170.708 201.832 170.989 201.604 171.306 201.431C171.657 201.244 172.058 201.161 172.458 201.191C172.766 201.227 172.926 201.334 172.91 201.359C172.894 201.385 172.719 201.359 172.448 201.359C172.105 201.38 171.771 201.474 171.47 201.635C171.175 201.8 170.897 201.993 170.642 202.211C170.435 202.384 170.291 202.481 170.259 202.461Z" fill="#263238"/>
<path d="M163.987 200.564C163.928 200.62 164.109 200.829 164.337 201.074C164.566 201.319 164.762 201.507 164.842 201.472C164.922 201.436 164.842 201.171 164.587 200.911C164.332 200.651 164.045 200.508 163.987 200.564Z" fill="#263238"/>
<path d="M163.184 200.676C163.121 200.727 163.248 200.957 163.471 201.186C163.694 201.415 163.933 201.568 164.002 201.528C164.071 201.487 163.949 201.257 163.716 201.018C163.482 200.778 163.269 200.625 163.184 200.676Z" fill="#263238"/>
<path d="M162.536 200.798C162.462 200.839 162.536 201.028 162.674 201.232C162.812 201.436 162.956 201.594 163.041 201.568C163.126 201.543 163.099 201.329 162.956 201.11C162.812 200.89 162.605 200.758 162.536 200.798Z" fill="#263238"/>
<path d="M163.981 200.64C164.193 200.425 164.349 200.165 164.438 199.881C164.561 199.584 164.617 199.266 164.603 198.947C164.594 198.753 164.549 198.561 164.47 198.381C164.426 198.279 164.367 198.182 164.295 198.096C164.19 197.981 164.044 197.908 163.886 197.892C163.812 197.886 163.738 197.894 163.668 197.917C163.598 197.94 163.533 197.976 163.479 198.024C163.424 198.072 163.381 198.13 163.351 198.196C163.322 198.261 163.306 198.331 163.307 198.402C163.306 198.59 163.325 198.778 163.365 198.963C163.425 199.27 163.518 199.571 163.641 199.86C163.731 200.144 163.885 200.405 164.093 200.625C164.05 200.345 163.971 200.071 163.859 199.809C163.77 199.52 163.702 199.225 163.657 198.927C163.631 198.758 163.62 198.588 163.625 198.417C163.625 198.264 163.748 198.142 163.859 198.152C163.971 198.162 164.103 198.295 164.172 198.463C164.247 198.624 164.292 198.797 164.305 198.973C164.331 199.264 164.302 199.558 164.22 199.84C164.112 200.098 164.032 200.366 163.981 200.64Z" fill="#263238"/>
<path d="M164.082 200.508C164.01 200.214 163.866 199.942 163.662 199.712C163.457 199.438 163.214 199.191 162.94 198.978C162.775 198.846 162.597 198.73 162.409 198.631C162.296 198.573 162.177 198.529 162.053 198.499C161.971 198.483 161.886 198.483 161.803 198.499C161.753 198.505 161.704 198.522 161.661 198.549C161.618 198.575 161.581 198.61 161.554 198.652C161.508 198.765 161.493 198.887 161.512 199.007C161.53 199.127 161.582 199.24 161.66 199.335C161.775 199.513 161.925 199.669 162.101 199.794C162.398 199.998 162.719 200.17 163.057 200.304C163.365 200.476 163.724 200.544 164.077 200.498C163.766 200.397 163.462 200.276 163.168 200.136C162.863 199.982 162.573 199.801 162.303 199.595C162.16 199.481 162.036 199.347 161.936 199.197C161.889 199.135 161.857 199.063 161.84 198.988C161.824 198.912 161.824 198.834 161.84 198.759C161.84 198.713 162.079 198.759 162.249 198.851C162.438 198.931 162.616 199.032 162.781 199.151C163.049 199.345 163.295 199.565 163.514 199.809C163.843 200.238 164.034 200.523 164.082 200.508Z" fill="#263238"/>
<path d="M164.82 200.452C166.164 200.659 167.524 200.746 168.884 200.712C170.242 200.77 171.602 200.724 172.952 200.574C171.602 200.455 170.245 200.411 168.889 200.442C166.648 200.421 164.826 200.38 164.82 200.452Z" fill="#263238"/>
<path d="M190.502 88.4903C190.502 88.4903 190.847 87.2461 189.865 79.6229C189.44 76.3034 187.087 74.2433 184.553 72.994V72.9533L184.335 72.8921C182.257 71.928 180.026 71.3041 177.733 71.0462L168.815 70.9085C168.815 70.9085 162.287 70.1283 158.128 74.4779C153.969 78.8275 151.132 81.3821 151.132 81.3821L157.777 89.0308L159.557 87.343C159.557 87.343 159.371 90.8665 160.582 92.9214L163.455 97.7758L161.591 106.327C160.412 109.585 156.524 121.502 158.048 133.307C159.934 147.926 160.236 152.199 160.236 152.199L181.77 155.024C181.77 155.024 190.375 124.072 187.427 111.778C185.403 103.329 183.857 103.721 183.358 101.891L183.9 88.7402L190.502 88.4903Z" fill="#CFCC53"/>
<path d="M161.262 84.4977C161.089 85.0438 160.828 85.5602 160.486 86.0274C160.228 86.5363 159.886 87.0014 159.472 87.4042C159.647 86.8591 159.908 86.3431 160.247 85.8744C160.507 85.3668 160.85 84.902 161.262 84.4977Z" fill="#263238"/>
<path d="M180.564 100.483C180.34 100.546 180.111 100.589 179.879 100.611C179.433 100.682 178.785 100.764 177.988 100.84C175.9 101.043 173.802 101.127 171.704 101.09C169.606 101.052 167.511 100.897 165.431 100.626C164.635 100.519 163.992 100.417 163.551 100.335C163.318 100.305 163.088 100.252 162.866 100.177C163.101 100.176 163.335 100.195 163.567 100.234L165.452 100.443C167.046 100.606 169.261 100.779 171.71 100.825C174.158 100.871 176.368 100.764 177.967 100.652L179.863 100.509C180.095 100.475 180.33 100.466 180.564 100.483Z" fill="#263238"/>
<path d="M187.82 123.649C187.808 123.785 187.781 123.92 187.74 124.052C187.666 124.342 187.57 124.73 187.448 125.214C187.379 125.464 187.31 125.724 187.23 126.045C187.15 126.367 187.018 126.672 186.901 127.024C186.656 127.718 186.417 128.529 186.03 129.375L185.456 130.721C185.254 131.185 184.994 131.649 184.75 132.144C184.277 133.133 183.65 134.132 183.018 135.203C180.144 139.762 176.352 143.725 171.863 146.86C170.801 147.553 169.829 148.237 168.836 148.767C168.347 149.042 167.885 149.328 167.418 149.562L166.068 150.22C165.224 150.664 164.401 150.954 163.699 151.24C163.349 151.383 163.02 151.52 162.717 151.633L161.867 151.908L160.688 152.285C160.553 152.334 160.415 152.372 160.273 152.398C160.4 152.33 160.533 152.275 160.672 152.234L161.83 151.811L162.669 151.515C162.972 151.398 163.29 151.25 163.641 151.102C164.332 150.796 165.144 150.496 165.983 150.042L167.317 149.369C167.779 149.134 168.236 148.859 168.719 148.568C169.702 148.033 170.674 147.344 171.715 146.651C176.165 143.518 179.938 139.583 182.821 135.066C183.459 134.015 184.091 133.026 184.564 132.042C184.813 131.532 185.095 131.098 185.281 130.634C185.467 130.17 185.684 129.727 185.87 129.304C186.269 128.462 186.518 127.667 186.779 126.978C186.901 126.632 187.028 126.31 187.124 126.01C187.219 125.709 187.294 125.433 187.363 125.184L187.708 124.041C187.736 123.908 187.773 123.777 187.82 123.649Z" fill="#263238"/>
<path d="M190.162 84.0285C190.057 84.1046 189.943 84.1679 189.822 84.2171C189.599 84.3293 189.291 84.4976 188.829 84.6965C187.604 85.295 186.291 85.7111 184.935 85.9304C183.987 86.0614 183.022 86.0112 182.094 85.7826C181.573 85.6501 181.077 85.442 180.622 85.1656C180.148 84.863 179.723 84.4934 179.364 84.0693C178.655 83.1394 178.017 82.1611 177.457 81.1424C176.835 80.1225 176.028 79.1027 174.801 78.7152C173.574 78.3276 172.283 78.6183 171.109 78.9395C169.97 79.3225 168.785 79.5674 167.582 79.6687C166.865 79.6936 166.15 79.574 165.484 79.3174C164.818 79.0609 164.215 78.6731 163.715 78.1793C163.214 77.6854 162.827 77.0963 162.579 76.4499C162.33 75.8036 162.225 75.1144 162.271 74.4268C162.307 73.857 162.442 73.297 162.669 72.7696C162.848 72.3158 163.121 71.9013 163.471 71.5509C163.193 71.9465 162.958 72.3686 162.77 72.8104C162.563 73.3309 162.446 73.8803 162.425 74.437C162.403 75.0954 162.521 75.7512 162.773 76.3641C163.024 76.977 163.404 77.5341 163.888 78.0011C164.372 78.4681 164.95 78.8352 165.587 79.0799C166.224 79.3246 166.907 79.4417 167.593 79.424C168.773 79.3167 169.935 79.0684 171.051 78.6846C171.662 78.5048 172.287 78.3735 172.921 78.2919C173.588 78.2073 174.267 78.2666 174.907 78.4653C175.543 78.6833 176.115 79.0454 176.575 79.5208C177.008 79.9759 177.387 80.4752 177.706 81.0098C178.26 82.0184 178.885 82.9895 179.576 83.9163C180.235 84.7202 181.145 85.2994 182.173 85.5684C183.071 85.8016 184.008 85.8623 184.93 85.7469C186.272 85.5448 187.576 85.1584 188.802 84.5996L189.817 84.1661C189.928 84.1125 190.044 84.0665 190.162 84.0285Z" fill="white"/>
<path d="M177.526 102.095C177.708 101.833 177.836 101.541 177.903 101.233C177.956 100.811 177.909 100.384 177.765 99.9819C177.622 99.5802 177.386 99.2147 177.074 98.9129C176.646 98.4924 176.12 98.176 175.539 97.9899C174.868 97.7728 174.173 97.6274 173.468 97.5565C172.719 97.4596 171.917 97.4035 171.099 97.2352C170.236 97.0852 169.421 96.7487 168.714 96.2511C168.363 95.9821 168.066 95.6538 167.837 95.2823C167.623 94.9238 167.446 94.5464 167.306 94.1554C167.088 93.432 166.798 92.7303 166.441 92.0596C166.105 91.5185 165.634 91.0668 165.07 90.746C164.506 90.4253 163.866 90.2458 163.211 90.224C162.314 90.2082 161.437 90.481 160.72 90.999C160.464 91.1969 160.221 91.4097 159.992 91.6364C159.992 91.6364 160.029 91.5599 160.13 91.4273C160.289 91.2404 160.467 91.0695 160.661 90.9174C161.382 90.3457 162.287 90.0336 163.222 90.0353C163.916 90.0464 164.595 90.2263 165.197 90.558C165.799 90.8897 166.304 91.3625 166.664 91.9322C167.035 92.6149 167.338 93.3304 167.567 94.0687C167.797 94.8366 168.257 95.5228 168.889 96.0421C169.561 96.5123 170.334 96.8328 171.152 96.9803C171.949 97.1486 172.745 97.2098 173.494 97.3168C174.992 97.4953 176.416 97.9083 177.213 98.7854C177.536 99.1091 177.776 99.5008 177.913 99.9293C178.05 100.358 178.082 100.811 178.004 101.253C177.949 101.491 177.845 101.715 177.696 101.911C177.647 101.978 177.59 102.04 177.526 102.095Z" fill="white"/>
<path d="M185.86 138.309C185.151 138.241 184.436 138.27 183.735 138.395C182.916 138.557 182.105 138.76 181.308 139.002C180.246 139.342 179.139 139.535 178.02 139.573C176.655 139.599 175.3 139.343 174.047 138.824C172.591 138.239 171.341 137.266 170.445 136.019C169.488 134.606 169.08 132.915 169.293 131.241C169.397 130.36 169.677 129.507 170.116 128.727C170.573 127.921 171.214 127.223 171.991 126.688C172.745 126.147 173.585 125.668 173.962 124.918C174.153 124.549 174.216 124.131 174.142 123.725C174.058 123.314 173.915 122.916 173.717 122.542C173.269 121.806 172.967 120.997 172.825 120.156C172.743 119.333 172.871 118.504 173.197 117.739C173.823 116.332 174.994 115.215 176.464 114.623C177.721 114.109 179.082 113.874 180.447 113.935C181.551 113.99 182.658 113.959 183.756 113.843C184.58 113.732 185.366 113.439 186.051 112.986C186.49 112.702 186.853 112.323 187.113 111.88C187.283 111.574 187.321 111.396 187.342 111.401C187.309 111.578 187.248 111.75 187.161 111.911C186.92 112.372 186.566 112.771 186.131 113.073C185.439 113.551 184.641 113.867 183.799 113.996C182.693 114.129 181.577 114.174 180.463 114.129C179.127 114.079 177.797 114.318 176.57 114.827C175.164 115.409 174.049 116.491 173.457 117.846C173.148 118.574 173.029 119.363 173.112 120.146C173.252 120.959 173.548 121.74 173.983 122.45C174.194 122.844 174.344 123.265 174.429 123.7C174.517 124.159 174.446 124.634 174.227 125.051C173.776 125.897 172.915 126.382 172.177 126.912C171.449 127.421 170.842 128.072 170.395 128.823C169.948 129.573 169.672 130.406 169.585 131.267C169.382 132.872 169.769 134.495 170.679 135.856C171.545 137.068 172.752 138.019 174.158 138.599C175.383 139.111 176.706 139.37 178.041 139.359C179.145 139.339 180.239 139.167 181.292 138.849C182.096 138.615 182.914 138.426 183.741 138.283C184.266 138.194 184.802 138.17 185.334 138.212C185.512 138.228 185.688 138.261 185.86 138.309Z" fill="white"/>
<path d="M178.344 154.57C178.317 154.57 178.344 154.213 178.381 153.576C178.432 152.681 178.267 151.787 177.898 150.965C177.636 150.413 177.179 149.968 176.607 149.71C175.931 149.459 175.206 149.353 174.482 149.399C173.639 149.464 172.792 149.364 171.991 149.104C171.577 148.919 171.214 148.645 170.929 148.303C170.646 147.956 170.4 147.581 170.196 147.186C169.846 146.415 169.389 145.692 168.836 145.04C168.302 144.451 167.661 143.961 166.945 143.591C165.726 142.96 164.328 142.721 162.956 142.908C162.031 143.035 161.141 143.336 160.337 143.795C159.774 144.127 159.498 144.367 159.482 144.351C159.466 144.336 159.541 144.28 159.668 144.163C160.586 143.389 161.72 142.889 162.929 142.725C164.344 142.501 165.796 142.73 167.062 143.377C167.811 143.752 168.481 144.257 169.038 144.866C169.331 145.182 169.593 145.523 169.819 145.886C170.042 146.263 170.233 146.656 170.44 147.044C170.763 147.812 171.355 148.448 172.113 148.844C172.88 149.091 173.691 149.19 174.498 149.134C175.265 149.092 176.032 149.212 176.745 149.486C177.357 149.775 177.842 150.263 178.115 150.863C178.477 151.717 178.619 152.642 178.53 153.56C178.503 153.881 178.471 154.131 178.439 154.295C178.417 154.389 178.385 154.481 178.344 154.57Z" fill="white"/>
<path d="M165.601 112.4C165.474 112.701 165.329 112.993 165.165 113.277C164.737 114.046 164.468 114.888 164.374 115.755C164.339 116.348 164.473 116.939 164.762 117.463C165.121 118.064 165.525 118.639 165.973 119.182C166.481 119.837 166.849 120.583 167.054 121.376C167.259 122.17 167.298 122.994 167.168 123.802C167.031 124.615 166.695 125.386 166.187 126.05C165.679 126.714 165.014 127.252 164.247 127.621C163.58 127.948 162.844 128.122 162.095 128.131C161.3 128.122 160.521 127.919 159.83 127.541C159.139 127.163 158.561 126.622 158.149 125.969C158.024 125.759 157.921 125.539 157.841 125.311C157.808 125.231 157.788 125.147 157.782 125.061C157.921 125.354 158.075 125.64 158.244 125.918C158.741 126.647 159.453 127.217 160.289 127.555C160.856 127.794 161.47 127.914 162.09 127.906C162.803 127.89 163.503 127.715 164.135 127.397C164.86 127.04 165.488 126.525 165.968 125.892C166.448 125.26 166.766 124.528 166.897 123.756C167.146 122.188 166.737 120.589 165.76 119.309C165.312 118.753 164.909 118.165 164.555 117.55C164.258 116.988 164.127 116.358 164.177 115.73C164.29 114.843 164.594 113.988 165.07 113.221C165.229 112.946 165.357 112.737 165.452 112.599C165.495 112.528 165.545 112.461 165.601 112.4Z" fill="white"/>
<path d="M181.605 95.2924C181.561 95.0929 181.54 94.8895 181.541 94.6856C181.541 94.2369 181.488 93.6658 181.456 93.0233C181.382 91.565 181.286 89.663 181.18 87.5571C181.074 85.4511 181 83.4778 180.984 82.0806C180.984 81.3769 180.984 80.8109 180.984 80.4183C180.973 80.2134 180.988 80.0081 181.026 79.8064C181.074 80.0071 181.095 80.2126 181.09 80.4183C181.116 80.8619 181.143 81.4381 181.18 82.0755C181.249 83.5339 181.345 85.4358 181.456 87.5418C181.568 89.6477 181.632 91.6211 181.648 93.0182C181.648 93.7219 181.648 94.2879 181.648 94.6805C181.658 94.8854 181.644 95.0907 181.605 95.2924Z" fill="#263238"/>
<path d="M181.419 88.8319C181.419 88.8319 182.306 99.122 181.287 99.8358C175.608 103.645 168.061 105.175 165.352 105.628C164.975 105.496 164.539 105.338 164.034 105.119C163.597 104.932 163.197 104.675 162.85 104.359C162.403 103.982 162.01 103.55 161.681 103.074C161.642 102.969 161.568 102.88 161.471 102.82C161.374 102.759 161.259 102.731 161.143 102.739C161.028 102.747 160.918 102.791 160.831 102.864C160.744 102.938 160.685 103.036 160.661 103.145C160.592 103.619 161.262 104.925 162.648 105.965C164.034 107.005 161.309 107.066 160.316 107.102C159.323 107.138 156.263 107.398 156.04 107.709C155.711 108.158 156.147 108.596 157.14 108.535C158.133 108.474 161.108 108.499 161.113 109.014C161.118 109.529 156.062 109.647 156.062 109.647C156.062 109.647 154.999 109.504 154.962 110.095C154.93 111.166 160.274 110.646 160.805 110.605C161.161 110.564 161.182 111.115 160.805 111.151C160.428 111.186 155.764 111.151 155.722 112.247C155.69 113.083 160.13 111.86 161.102 112.39C162.074 112.92 157.634 112.981 157.639 113.782C157.639 114.083 157.682 114.292 160.221 113.909C162.037 113.546 163.832 113.086 165.596 112.533V112.558C165.596 112.558 192 110.386 191.336 98.9588C190.89 91.2234 191.039 92.6512 190.545 88.5872" fill="#B78876"/>
</svg>
