<svg width="166" height="43" viewBox="0 0 166 43" fill="none" xmlns="http://www.w3.org/2000/svg">
<path d="M11.0439 32.4778C8.71865 32.4778 6.56855 31.9841 4.59364 30.9966C2.65059 30.0092 1.15348 28.6076 0.10232 26.792L3.35136 24.4508C4.05213 25.916 5.07144 27.0627 6.40928 27.8909C7.77897 28.7191 9.41942 29.1332 11.3306 29.1332C13.0188 29.1332 14.3408 28.8147 15.2964 28.1776C16.252 27.5087 16.7298 26.6486 16.7298 25.5975C16.7298 24.9286 16.5068 24.3233 16.0608 23.7818C15.6467 23.2085 14.8345 22.7944 13.6241 22.5396L7.89046 21.3451C5.56517 20.8673 3.89287 20.0709 2.87356 18.9561C1.88611 17.8412 1.39238 16.4556 1.39238 14.7992C1.39238 13.4932 1.75869 12.2987 2.49132 11.2157C3.2558 10.1327 4.32289 9.27265 5.69258 8.63558C7.09413 7.96666 8.73457 7.6322 10.6139 7.6322C12.9711 7.6322 14.9619 8.09407 16.5864 9.01782C18.2109 9.94157 19.4214 11.2476 20.2177 12.9358L17.0164 15.0381C16.4749 13.6366 15.599 12.6172 14.3885 11.9802C13.1781 11.3113 11.9199 10.9768 10.6139 10.9768C9.4672 10.9768 8.47975 11.1361 7.65156 11.4546C6.85523 11.7731 6.23409 12.2191 5.78814 12.7924C5.37405 13.3339 5.167 13.9551 5.167 14.6559C5.167 15.3566 5.4059 16.0096 5.8837 16.6148C6.3615 17.1882 7.25339 17.6023 8.55938 17.8571L14.5319 19.0994C16.7616 19.5453 18.3224 20.278 19.2143 21.2973C20.1062 22.3166 20.5522 23.5589 20.5522 25.0241C20.5522 26.5212 20.154 27.8431 19.3577 28.9899C18.5613 30.1047 17.4465 30.9648 16.0131 31.57C14.5797 32.1752 12.9233 32.4778 11.0439 32.4778ZM37.5305 7.6322C39.1869 7.6322 40.6362 7.88703 41.8785 8.39668C43.1526 8.90633 44.2515 9.63896 45.1753 10.5946C46.099 11.5502 46.8476 12.681 47.4209 13.9869L43.7897 15.707C43.28 14.1781 42.4996 13.0154 41.4484 12.2191C40.4291 11.3909 39.0913 10.9768 37.4349 10.9768C35.8423 10.9768 34.4726 11.3431 33.3258 12.0757C32.1791 12.7765 31.3032 13.8117 30.6979 15.1814C30.0927 16.5193 29.7901 18.1438 29.7901 20.055C29.7901 21.9343 30.0927 23.5589 30.6979 24.9286C31.3032 26.2983 32.1791 27.3494 33.3258 28.082C34.4726 28.7828 35.8423 29.1332 37.4349 29.1332C38.6772 29.1332 39.7443 28.9421 40.6362 28.5598C41.5599 28.1776 42.3085 27.6202 42.8818 26.8875C43.4871 26.1549 43.9012 25.263 44.1241 24.2119L47.6598 25.4541C47.1183 26.9194 46.3698 28.1776 45.4142 29.2288C44.4904 30.2799 43.3596 31.0922 42.0218 31.6655C40.7158 32.207 39.2187 32.4778 37.5305 32.4778C35.3008 32.4778 33.3099 31.9841 31.558 30.9966C29.8061 30.0092 28.4364 28.5917 27.4489 26.7442C26.4615 24.8649 25.9677 22.6351 25.9677 20.055C25.9677 17.4749 26.4615 15.2611 27.4489 13.4136C28.4364 11.5342 29.8061 10.1008 31.558 9.11338C33.3099 8.12593 35.3008 7.6322 37.5305 7.6322ZM54.3763 32V8.11H57.482L58.0076 12.028C58.6765 10.5627 59.648 9.46377 60.9222 8.73114C62.2281 7.99851 63.8049 7.6322 65.6524 7.6322C66.0665 7.6322 66.5124 7.66405 66.9902 7.72776C67.4999 7.79147 67.9299 7.91888 68.2803 8.11L67.6114 11.5979C67.261 11.4705 66.8787 11.375 66.4646 11.3113C66.0505 11.2476 65.4613 11.2157 64.6968 11.2157C63.7093 11.2157 62.7059 11.5024 61.6866 12.0757C60.6992 12.6491 59.871 13.5251 59.2021 14.7036C58.5332 15.8504 58.1987 17.3156 58.1987 19.0994V32H54.3763ZM87.1788 16.5671C87.1788 14.7833 86.701 13.4136 85.7454 12.458C84.7898 11.4705 83.436 10.9768 81.6841 10.9768C80.0277 10.9768 78.6261 11.3431 77.4794 12.0757C76.3327 12.7765 75.4886 13.9232 74.9471 15.5159L71.8414 13.6047C72.4784 11.8209 73.657 10.3875 75.3771 9.3045C77.0972 8.18963 79.2313 7.6322 81.7796 7.6322C83.4997 7.6322 85.0605 7.93481 86.4621 8.54002C87.8636 9.11338 88.9625 10.0053 89.7589 11.2157C90.5871 12.3943 91.0012 13.9232 91.0012 15.8026V27.3653C91.0012 28.5121 91.6064 29.0854 92.8168 29.0854C93.422 29.0854 94.0113 29.0058 94.5847 28.8465L94.3935 31.8567C93.7565 32.1752 92.9283 32.3345 91.909 32.3345C90.9852 32.3345 90.157 32.1593 89.4244 31.8089C88.6918 31.4585 88.1184 30.9329 87.7043 30.2321C87.2902 29.4995 87.0832 28.5917 87.0832 27.5087V27.0309L88.0388 27.1742C87.6566 28.4165 87.0036 29.4358 86.0798 30.2321C85.1561 30.9966 84.1208 31.57 82.9741 31.9522C81.8274 32.3026 80.6966 32.4778 79.5817 32.4778C78.1802 32.4778 76.8742 32.2389 75.6638 31.7611C74.4533 31.2833 73.4818 30.5666 72.7492 29.611C72.0484 28.6235 71.698 27.4131 71.698 25.9797C71.698 24.1959 72.2873 22.7307 73.4659 21.584C74.6763 20.4054 76.3486 19.6091 78.4828 19.195L87.9432 17.3315V20.485L80.2507 22.0618C78.6898 22.3803 77.5272 22.8262 76.7627 23.3996C75.9982 23.973 75.616 24.7693 75.616 25.7886C75.616 26.7761 75.9982 27.5883 76.7627 28.2254C77.559 28.8306 78.6739 29.1332 80.1073 29.1332C81.0311 29.1332 81.907 29.0217 82.7352 28.7987C83.5953 28.5439 84.3597 28.1776 85.0287 27.6998C85.6976 27.1901 86.2232 26.569 86.6054 25.8364C86.9876 25.0719 87.1788 24.18 87.1788 23.1607V16.5671ZM100.29 42.0338V8.11H103.634L103.969 13.9392L103.443 13.2702C103.857 12.1554 104.479 11.1838 105.307 10.3557C106.135 9.49562 107.138 8.8267 108.317 8.3489C109.495 7.8711 110.77 7.6322 112.139 7.6322C114.082 7.6322 115.866 8.12593 117.491 9.11338C119.147 10.1008 120.469 11.5183 121.456 13.3658C122.444 15.2133 122.938 17.443 122.938 20.055C122.938 22.6351 122.428 24.8649 121.409 26.7442C120.421 28.5917 119.099 30.0092 117.443 30.9966C115.787 31.9841 113.971 32.4778 111.996 32.4778C110.021 32.4778 108.285 32 106.788 31.0444C105.323 30.0569 104.272 28.8147 103.634 27.3176L104.112 26.6009V42.0338H100.29ZM111.614 29.1332C113.971 29.1332 115.802 28.305 117.108 26.6486C118.446 24.9923 119.115 22.7944 119.115 20.055C119.115 17.3156 118.462 15.1177 117.156 13.4614C115.882 11.805 114.082 10.9768 111.757 10.9768C110.228 10.9768 108.89 11.359 107.744 12.1235C106.597 12.8561 105.705 13.9073 105.068 15.277C104.431 16.6148 104.112 18.2075 104.112 20.055C104.112 21.8706 104.415 23.4633 105.02 24.833C105.657 26.2027 106.533 27.2698 107.648 28.0343C108.795 28.7669 110.117 29.1332 111.614 29.1332ZM130.542 32V0.4652H152.665V4.0487H134.365V14.2258H148.603V17.8093H134.365V28.4165H153.381V32H130.542ZM162.206 26.2664C163.13 26.2664 163.878 26.5531 164.452 27.1264C165.025 27.6998 165.312 28.4484 165.312 29.3721C165.312 30.2958 165.025 31.0444 164.452 31.6178C163.878 32.1911 163.13 32.4778 162.206 32.4778C161.282 32.4778 160.534 32.1911 159.96 31.6178C159.387 31.0444 159.1 30.2958 159.1 29.3721C159.1 28.4484 159.387 27.6998 159.96 27.1264C160.534 26.5531 161.282 26.2664 162.206 26.2664Z" fill="#CCB23E"/>
</svg>
