<svg width="20" height="22" viewBox="0 0 20 22" fill="none" xmlns="http://www.w3.org/2000/svg">
<path d="M14.9999 5.75H18.0719C18.2577 5.75018 18.4368 5.81933 18.5745 5.94403C18.7123 6.06874 18.7988 6.24013 18.8174 6.425L19.2749 11H17.7659L17.3909 7.25H14.9999V9.5C14.9999 9.69891 14.9209 9.88968 14.7802 10.0303C14.6396 10.171 14.4488 10.25 14.2499 10.25C14.051 10.25 13.8602 10.171 13.7195 10.0303C13.5789 9.88968 13.4999 9.69891 13.4999 9.5V7.25H7.49987V9.5C7.49987 9.69891 7.42086 9.88968 7.2802 10.0303C7.13955 10.171 6.94879 10.25 6.74987 10.25C6.55096 10.25 6.3602 10.171 6.21954 10.0303C6.07889 9.88968 5.99987 9.69891 5.99987 9.5V7.25H3.60737L2.40737 19.25H10.4999V20.75H1.57787C1.47312 20.7499 1.36955 20.7278 1.27383 20.6853C1.17812 20.6427 1.09238 20.5806 1.02215 20.5028C0.951917 20.4251 0.898745 20.3335 0.866059 20.234C0.833372 20.1345 0.821897 20.0292 0.832373 19.925L2.18237 6.425C2.20095 6.24013 2.28749 6.06874 2.42522 5.94403C2.56296 5.81933 2.74207 5.75018 2.92787 5.75H5.99987V5.2265C5.99987 2.6255 8.00387 0.5 10.4999 0.5C12.9959 0.5 14.9999 2.6255 14.9999 5.2265V5.7515V5.75ZM13.4999 5.75V5.2265C13.4999 3.4355 12.1469 2 10.4999 2C8.85287 2 7.49987 3.4355 7.49987 5.2265V5.7515H13.4999V5.75ZM18.2204 17.09L16.4999 15.371V20.75C16.4999 20.9489 16.4209 21.1397 16.2802 21.2803C16.1396 21.421 15.9488 21.5 15.7499 21.5C15.551 21.5 15.3602 21.421 15.2195 21.2803C15.0789 21.1397 14.9999 20.9489 14.9999 20.75V15.371L13.2809 17.09C13.2117 17.1616 13.1289 17.2188 13.0374 17.2581C12.9459 17.2974 12.8475 17.3181 12.7479 17.3189C12.6483 17.3198 12.5496 17.3008 12.4574 17.2631C12.3652 17.2254 12.2815 17.1697 12.2111 17.0993C12.1407 17.0289 12.085 16.9451 12.0473 16.853C12.0095 16.7608 11.9906 16.662 11.9914 16.5625C11.9923 16.4629 12.013 16.3644 12.0523 16.2729C12.0916 16.1814 12.1487 16.0987 12.2204 16.0295L15.2204 13.0295C15.361 12.8889 15.5517 12.8099 15.7506 12.8099C15.9495 12.8099 16.1402 12.8889 16.2809 13.0295L19.2809 16.0295C19.3525 16.0987 19.4096 16.1814 19.4489 16.2729C19.4883 16.3644 19.5089 16.4629 19.5098 16.5625C19.5107 16.662 19.4917 16.7608 19.454 16.853C19.4163 16.9451 19.3606 17.0289 19.2902 17.0993C19.2197 17.1697 19.136 17.2254 19.0438 17.2631C18.9517 17.3008 18.8529 17.3198 18.7533 17.3189C18.6537 17.3181 18.5553 17.2974 18.4638 17.2581C18.3723 17.2188 18.2896 17.1616 18.2204 17.09Z" fill="#2C6150"/>
</svg>
