<svg width="41" height="40" viewBox="0 0 41 40" fill="none" xmlns="http://www.w3.org/2000/svg">
<g filter="url(#filter0_d_204_2422)">
<circle cx="18.5" cy="16" r="16" fill="white"/>
<circle cx="18.5" cy="16" r="15.5" stroke="white"/>
</g>
<g clip-path="url(#clip0_204_2422)">
<path d="M25.7729 4.01201C25.7219 3.95501 23.8844 4.03451 22.2854 5.77001C20.6864 7.50401 20.9324 9.49301 20.9684 9.54401C21.0044 9.59501 23.2484 9.67451 24.6809 7.65701C26.1134 5.63951 25.8239 4.07051 25.7729 4.01201ZM30.7439 21.6115C30.6719 21.4675 27.2564 19.7605 27.5744 16.4785C27.8924 13.195 30.0869 12.295 30.1214 12.1975C30.1559 12.1 29.2259 11.0125 28.2404 10.462C27.5168 10.0739 26.716 9.85152 25.8959 9.81101C25.7339 9.80651 25.1714 9.66851 24.0149 9.98501C23.2529 10.1935 21.5354 10.8685 21.0629 10.8955C20.5889 10.9225 19.1789 10.1125 17.6624 9.89801C16.6919 9.71051 15.6629 10.0945 14.9264 10.39C14.1914 10.684 12.7934 11.521 11.8154 13.7455C10.8374 15.9685 11.3489 19.4905 11.7149 20.5855C12.0809 21.679 12.6524 23.4715 13.6244 24.7795C14.4884 26.2555 15.6344 27.28 16.1129 27.628C16.5914 27.976 17.9414 28.207 18.8774 27.7285C19.6304 27.2665 20.9894 27.001 21.5264 27.0205C22.0619 27.04 23.1179 27.2515 24.1994 27.829C25.0559 28.1245 25.8659 28.0015 26.6774 27.6715C27.4889 27.34 28.6634 26.083 30.0344 23.5345C30.5549 22.3495 30.7919 21.709 30.7439 21.6115Z" fill="#222222"/>
<path d="M25.7729 4.01201C25.7219 3.95501 23.8844 4.03451 22.2854 5.77001C20.6864 7.50401 20.9324 9.49301 20.9684 9.54401C21.0044 9.59501 23.2484 9.67451 24.6809 7.65701C26.1134 5.63951 25.8239 4.07051 25.7729 4.01201ZM30.7439 21.6115C30.6719 21.4675 27.2564 19.7605 27.5744 16.4785C27.8924 13.195 30.0869 12.295 30.1214 12.1975C30.1559 12.1 29.2259 11.0125 28.2404 10.462C27.5168 10.0739 26.716 9.85152 25.8959 9.81101C25.7339 9.80651 25.1714 9.66851 24.0149 9.98501C23.2529 10.1935 21.5354 10.8685 21.0629 10.8955C20.5889 10.9225 19.1789 10.1125 17.6624 9.89801C16.6919 9.71051 15.6629 10.0945 14.9264 10.39C14.1914 10.684 12.7934 11.521 11.8154 13.7455C10.8374 15.9685 11.3489 19.4905 11.7149 20.5855C12.0809 21.679 12.6524 23.4715 13.6244 24.7795C14.4884 26.2555 15.6344 27.28 16.1129 27.628C16.5914 27.976 17.9414 28.207 18.8774 27.7285C19.6304 27.2665 20.9894 27.001 21.5264 27.0205C22.0619 27.04 23.1179 27.2515 24.1994 27.829C25.0559 28.1245 25.8659 28.0015 26.6774 27.6715C27.4889 27.34 28.6634 26.083 30.0344 23.5345C30.5549 22.3495 30.7919 21.709 30.7439 21.6115Z" fill="#222222"/>
</g>
<defs>
<filter id="filter0_d_204_2422" x="0.5" y="0" width="40" height="40" filterUnits="userSpaceOnUse" color-interpolation-filters="sRGB">
<feFlood flood-opacity="0" result="BackgroundImageFix"/>
<feColorMatrix in="SourceAlpha" type="matrix" values="0 0 0 0 0 0 0 0 0 0 0 0 0 0 0 0 0 0 127 0" result="hardAlpha"/>
<feOffset dx="2" dy="4"/>
<feGaussianBlur stdDeviation="2"/>
<feComposite in2="hardAlpha" operator="out"/>
<feColorMatrix type="matrix" values="0 0 0 0 0 0 0 0 0 0 0 0 0 0 0 0 0 0 0.25 0"/>
<feBlend mode="normal" in2="BackgroundImageFix" result="effect1_dropShadow_204_2422"/>
<feBlend mode="normal" in="SourceGraphic" in2="effect1_dropShadow_204_2422" result="shape"/>
</filter>
<clipPath id="clip0_204_2422">
<rect width="24" height="24" fill="white" transform="translate(9 4)"/>
</clipPath>
</defs>
</svg>
