<svg width="40" height="40" viewBox="0 0 40 40" fill="none" xmlns="http://www.w3.org/2000/svg">
<g filter="url(#filter0_d_204_2415)">
<circle cx="18" cy="16" r="16" fill="white"/>
<circle cx="18" cy="16" r="15.5" stroke="white"/>
</g>
<g clip-path="url(#clip0_204_2415)">
<path d="M31.9835 16.2245C31.9835 15.2413 31.9018 14.5238 31.7252 13.7797H20.2388V18.2176H26.981C26.8452 19.3205 26.1111 20.9815 24.4799 22.0976L24.457 22.2462L28.0888 24.9964L28.3404 25.0209C30.6512 22.9347 31.9835 19.8653 31.9835 16.2245Z" fill="#4285F4"/>
<path d="M20.2392 27.9176C23.5423 27.9176 26.3153 26.8545 28.3408 25.0209L24.4803 22.0976C23.4472 22.8018 22.0606 23.2934 20.2392 23.2934C17.004 23.2934 14.2581 21.2074 13.2793 18.324L13.1358 18.3359L9.35944 21.1927L9.31006 21.3269C11.3219 25.2334 15.4543 27.9176 20.2392 27.9176Z" fill="#34A853"/>
<path d="M13.2791 18.324C13.0208 17.5799 12.8713 16.7826 12.8713 15.9588C12.8713 15.1349 13.0208 14.3377 13.2655 13.5936L13.2586 13.4351L9.43492 10.5324L9.30982 10.5906C8.48066 12.2117 8.00488 14.0321 8.00488 15.9588C8.00488 17.8855 8.48066 19.7058 9.30982 21.3269L13.2791 18.324Z" fill="#FBBC05"/>
<path d="M20.2392 8.62403C22.5364 8.62403 24.086 9.59402 24.9696 10.4046L28.4223 7.10928C26.3018 5.1826 23.5423 4 20.2392 4C15.4543 4 11.3219 6.68406 9.31006 10.5906L13.2657 13.5936C14.2581 10.7102 17.004 8.62403 20.2392 8.62403Z" fill="#EB4335"/>
</g>
<defs>
<filter id="filter0_d_204_2415" x="0" y="0" width="40" height="40" filterUnits="userSpaceOnUse" color-interpolation-filters="sRGB">
<feFlood flood-opacity="0" result="BackgroundImageFix"/>
<feColorMatrix in="SourceAlpha" type="matrix" values="0 0 0 0 0 0 0 0 0 0 0 0 0 0 0 0 0 0 127 0" result="hardAlpha"/>
<feOffset dx="2" dy="4"/>
<feGaussianBlur stdDeviation="2"/>
<feComposite in2="hardAlpha" operator="out"/>
<feColorMatrix type="matrix" values="0 0 0 0 0 0 0 0 0 0 0 0 0 0 0 0 0 0 0.25 0"/>
<feBlend mode="normal" in2="BackgroundImageFix" result="effect1_dropShadow_204_2415"/>
<feBlend mode="normal" in="SourceGraphic" in2="effect1_dropShadow_204_2415" result="shape"/>
</filter>
<clipPath id="clip0_204_2415">
<rect width="24" height="24" fill="white" transform="translate(8 4)"/>
</clipPath>
</defs>
</svg>
