<svg width="34" height="34" viewBox="0 0 34 34" fill="none" xmlns="http://www.w3.org/2000/svg">
<path d="M17.0002 15.3333V10.3333L23.6668 17L17.0002 23.6666V18.6666H10.3335V15.3333H17.0002ZM17.0002 0.333313C26.2002 0.333313 33.6668 7.79998 33.6668 17C33.6668 26.2 26.2002 33.6666 17.0002 33.6666C7.80016 33.6666 0.333496 26.2 0.333496 17C0.333496 7.79998 7.80016 0.333313 17.0002 0.333313ZM17.0002 30.3333C24.3668 30.3333 30.3335 24.3666 30.3335 17C30.3335 9.63331 24.3668 3.66665 17.0002 3.66665C9.6335 3.66665 3.66683 9.63331 3.66683 17C3.66683 24.3666 9.6335 30.3333 17.0002 30.3333Z" fill="#181514"/>
</svg>
