<svg width="20" height="22" viewBox="0 0 20 22" fill="none" xmlns="http://www.w3.org/2000/svg">
<path d="M15.0001 5.75H18.0721C18.2579 5.75018 18.437 5.81933 18.5748 5.94403C18.7125 6.06874 18.799 6.24013 18.8176 6.425L19.2751 11H17.7661L17.3911 7.25H15.0001V9.5C15.0001 9.69891 14.9211 9.88968 14.7804 10.0303C14.6398 10.171 14.449 10.25 14.2501 10.25C14.0512 10.25 13.8604 10.171 13.7198 10.0303C13.5791 9.88968 13.5001 9.69891 13.5001 9.5V7.25H7.50012V9.5C7.50012 9.69891 7.4211 9.88968 7.28045 10.0303C7.13979 10.171 6.94903 10.25 6.75012 10.25C6.5512 10.25 6.36044 10.171 6.21979 10.0303C6.07913 9.88968 6.00012 9.69891 6.00012 9.5V7.25H3.60762L2.40762 19.25H10.5001V20.75H1.57812C1.47336 20.7499 1.36979 20.7278 1.27408 20.6853C1.17836 20.6427 1.09263 20.5806 1.02239 20.5028C0.952161 20.4251 0.898989 20.3335 0.866303 20.234C0.833617 20.1345 0.822141 20.0292 0.832617 19.925L2.18262 6.425C2.2012 6.24013 2.28774 6.06874 2.42547 5.94403C2.5632 5.81933 2.74232 5.75018 2.92812 5.75H6.00012V5.2265C6.00012 2.6255 8.00412 0.5 10.5001 0.5C12.9961 0.5 15.0001 2.6255 15.0001 5.2265V5.7515V5.75ZM13.5001 5.75V5.2265C13.5001 3.4355 12.1471 2 10.5001 2C8.85312 2 7.50012 3.4355 7.50012 5.2265V5.7515H13.5001V5.75ZM18.2206 17.09L16.5001 15.371V20.75C16.5001 20.9489 16.4211 21.1397 16.2804 21.2803C16.1398 21.421 15.949 21.5 15.7501 21.5C15.5512 21.5 15.3604 21.421 15.2198 21.2803C15.0791 21.1397 15.0001 20.9489 15.0001 20.75V15.371L13.2811 17.09C13.2119 17.1616 13.1292 17.2188 13.0377 17.2581C12.9462 17.2974 12.8478 17.3181 12.7482 17.3189C12.6486 17.3198 12.5498 17.3008 12.4577 17.2631C12.3655 17.2254 12.2817 17.1697 12.2113 17.0993C12.1409 17.0289 12.0852 16.9451 12.0475 16.853C12.0098 16.7608 11.9908 16.662 11.9917 16.5625C11.9925 16.4629 12.0132 16.3644 12.0525 16.2729C12.0918 16.1814 12.149 16.0987 12.2206 16.0295L15.2206 13.0295C15.3613 12.8889 15.552 12.8099 15.7509 12.8099C15.9497 12.8099 16.1405 12.8889 16.2811 13.0295L19.2811 16.0295C19.3527 16.0987 19.4099 16.1814 19.4492 16.2729C19.4885 16.3644 19.5092 16.4629 19.5101 16.5625C19.5109 16.662 19.4919 16.7608 19.4542 16.853C19.4165 16.9451 19.3608 17.0289 19.2904 17.0993C19.22 17.1697 19.1363 17.2254 19.0441 17.2631C18.9519 17.3008 18.8531 17.3198 18.7536 17.3189C18.654 17.3181 18.5556 17.2974 18.4641 17.2581C18.3726 17.2188 18.2898 17.1616 18.2206 17.09Z" fill="#24201E"/>
</svg>
