<svg width="190" height="190" viewBox="0 0 190 190" fill="none" xmlns="http://www.w3.org/2000/svg">
<path d="M48.3334 95L88.3334 128.333L141.667 61.6666M95.0001 188.333C82.7434 188.333 70.6067 185.919 59.283 181.229C47.9592 176.538 37.6702 169.663 29.0034 160.997C20.3366 152.33 13.4618 142.041 8.77133 130.717C4.08089 119.393 1.66675 107.257 1.66675 95C1.66675 82.7432 4.08089 70.6066 8.77133 59.2828C13.4618 47.9591 20.3366 37.6701 29.0034 29.0033C37.6702 20.3365 47.9592 13.4616 59.283 8.7712C70.6067 4.08076 82.7434 1.66663 95.0001 1.66663C119.754 1.66663 143.493 11.4999 160.997 29.0033C178.5 46.5067 188.333 70.2464 188.333 95C188.333 119.753 178.5 143.493 160.997 160.997C143.493 178.5 119.754 188.333 95.0001 188.333Z" stroke="#222222" stroke-width="1.6"/>
</svg>
